<?xml version="1.0" encoding="UTF-8" standalone="no"?>
<!-- Generator: Adobe Illustrator 13.0.0, SVG Export Plug-In  -->

<svg
   xmlns:osb="http://www.openswatchbook.org/uri/2009/osb"
   xmlns:dc="http://purl.org/dc/elements/1.1/"
   xmlns:cc="http://creativecommons.org/ns#"
   xmlns:rdf="http://www.w3.org/1999/02/22-rdf-syntax-ns#"
   xmlns:svg="http://www.w3.org/2000/svg"
   xmlns="http://www.w3.org/2000/svg"
   xmlns:xlink="http://www.w3.org/1999/xlink"
   xmlns:sodipodi="http://sodipodi.sourceforge.net/DTD/sodipodi-0.dtd"
   xmlns:inkscape="http://www.inkscape.org/namespaces/inkscape"
   version="1.1"
   x="0px"
   y="0px"
   width="9.4292841"
   height="18.604385"
   viewBox="-0.781 -0.08 9.4292835 18.604385"
   enable-background="new -0.781 -0.08 576 506"
   xml:space="preserve"
   id="svg2"
   inkscape:version="0.91 r13725"
   sodipodi:docname="autruche.svg"
   inkscape:export-filename="/home/cyrille/Desktop/biche/biche_twitter.png"
   inkscape:export-xdpi="860.625"
   inkscape:export-ydpi="860.625"><metadata
     id="metadata18"><rdf:RDF><cc:Work
         rdf:about=""><dc:format>image/svg+xml</dc:format><dc:type
           rdf:resource="http://purl.org/dc/dcmitype/StillImage" /><dc:title /></cc:Work></rdf:RDF></metadata><sodipodi:namedview
     pagecolor="#ffffff"
     bordercolor="#666666"
     borderopacity="1"
     objecttolerance="10"
     gridtolerance="10"
     guidetolerance="10"
     inkscape:pageopacity="0"
     inkscape:pageshadow="2"
     inkscape:window-width="1600"
     inkscape:window-height="843"
     id="namedview16"
     showgrid="false"
     fit-margin-top="0.3"
     fit-margin-left="0.3"
     fit-margin-right="0.3"
     fit-margin-bottom="0.3"
     inkscape:zoom="29.220806"
     inkscape:cx="-6.6754513"
     inkscape:cy="9.7127293"
     inkscape:window-x="1440"
     inkscape:window-y="451"
     inkscape:window-maximized="1"
     inkscape:current-layer="svg2"
     showguides="true"
     inkscape:guide-bbox="true" /><defs
     id="defs4"><linearGradient
       id="linearGradient55169"><stop
         style="stop-color:#ffffff;stop-opacity:0"
         offset="0"
         id="stop55171" /><stop
         id="stop55173"
         offset="0.35170388"
         style="stop-color:#ffffff;stop-opacity:0" /><stop
         id="stop55175"
         offset="0.84391612"
         style="stop-color:#ffffff;stop-opacity:0.62283737" /><stop
         style="stop-color:#ffffff;stop-opacity:0.89090902"
         offset="1"
         id="stop55177" /></linearGradient><filter
       inkscape:menu-tooltip="Glow of object's own color at the edges"
       inkscape:menu="Shadows and Glows"
       inkscape:label="Glow"
       id="filter14661-2-8"
       style="color-interpolation-filters:sRGB"><feGaussianBlur
         result="result91"
         stdDeviation="5"
         id="feGaussianBlur14663-2-5" /><feComposite
         operator="over"
         in="SourceGraphic"
         in2="result91"
         id="feComposite14665-4-0" /></filter><filter
       inkscape:menu-tooltip="Glow of object's own color at the edges"
       inkscape:menu="Shadows and Glows"
       inkscape:label="Glow"
       id="filter14661-2"
       style="color-interpolation-filters:sRGB"><feGaussianBlur
         result="result91"
         stdDeviation="5"
         id="feGaussianBlur14663-2" /><feComposite
         operator="over"
         in="SourceGraphic"
         in2="result91"
         id="feComposite14665-4" /></filter><linearGradient
       osb:paint="solid"
       id="linearGradient14917"><stop
         id="stop14919"
         offset="0"
         style="stop-color:#8f9dab;stop-opacity:1;" /></linearGradient><radialGradient
       inkscape:collect="always"
       xlink:href="#linearGradient55169"
       id="radialGradient55186"
       gradientUnits="userSpaceOnUse"
       gradientTransform="matrix(-1.4347771,1.1729741,-0.60089747,-0.73501541,415.78881,-620.40755)"
       cx="240.46808"
       cy="-274.17172"
       fx="240.46808"
       fy="-274.17172"
       r="145.26971" /></defs><text
     xml:space="preserve"
     style="font-style:normal;font-weight:normal;font-size:1.53795719px;line-height:125%;font-family:Sans;letter-spacing:0px;word-spacing:0px;fill:#000000;fill-opacity:1;stroke:none"
     x="0.73343688"
     y="20.763985"
     id="text14023"
     sodipodi:linespacing="125%"><tspan
       sodipodi:role="line"
       id="tspan14025"
       x="0.73343688"
       y="20.763985"
       style="font-style:normal;font-variant:normal;font-weight:normal;font-stretch:normal;font-family:Ubuntu;-inkscape-font-specification:Ubuntu" /></text>
<flowRoot
     xml:space="preserve"
     id="flowRoot14027"
     style="font-style:normal;font-weight:normal;font-size:40px;line-height:125%;font-family:Sans;letter-spacing:0px;word-spacing:0px;fill:#000000;fill-opacity:1;stroke:none"
     transform="matrix(0.03844893,0,0,0.03844893,-0.4969289,-12.316018)"><flowRegion
       id="flowRegion14029"><rect
         id="rect14031"
         width="104"
         height="204"
         x="198"
         y="1364.189" /></flowRegion><flowPara
       id="flowPara14033" /></flowRoot><text
     xml:space="preserve"
     style="font-style:normal;font-weight:normal;font-size:2.12992406px;line-height:125%;font-family:Sans;letter-spacing:0px;word-spacing:0px;fill:#000000;fill-opacity:1;stroke:none"
     x="30.265745"
     y="-6.3407917"
     id="text11663"
     sodipodi:linespacing="125%"><tspan
       sodipodi:role="line"
       x="30.265745"
       y="-6.3407917"
       style="font-style:normal;font-variant:normal;font-weight:normal;font-stretch:normal;font-size:1.84554863px;font-family:'Liberation Sans';-inkscape-font-specification:'Liberation Sans';text-align:center;text-anchor:middle"
       id="tspan13579" /></text>
<g
     transform="matrix(0.03844893,0,0,0.03844893,-0.4969289,-29.073061)"
     inkscape:label="panneau cartopartie"
     id="layer2"><text
       sodipodi:linespacing="125%"
       id="text15732"
       y="761.2832"
       x="1838.4775"
       style="font-style:normal;font-weight:normal;font-size:40px;line-height:125%;font-family:Sans;letter-spacing:0px;word-spacing:0px;fill:#000000;fill-opacity:1;stroke:none"
       xml:space="preserve"><tspan
         y="761.2832"
         x="1838.4775"
         id="tspan15734"
         sodipodi:role="line" /></text>
</g><g
     transform="matrix(0.03844893,0,0,0.03844893,-0.4969289,-29.073061)"
     inkscape:label="Layer 2"
     id="layer3" /><path
     style="fill:#ffffff;fill-opacity:1;stroke:#f91a0e;stroke-width:17.42607307;stroke-miterlimit:4;stroke-dasharray:none;stroke-opacity:1;filter:url(#filter14661-2)"
     inkscape:connector-curvature="0"
     id="svg_1-4-1"
     d="M 230.78146,243.64766 C 211.1564,-71.696166 57.070697,-48.823778 97.989938,-193.96076 129.44271,-305.52099 298.90754,-296.54389 335.79403,-195.7949 386.14151,-58.279589 217.62541,-71.78517 230.78146,243.64766 Z"
     stroke-linecap="null"
     stroke-linejoin="null"
     sodipodi:nodetypes="cssc"
     transform="matrix(0.02895542,0,0,0.02895542,-2.383288,9.6691004)" /><path
     style="fill:#000000;fill-opacity:1;fill-rule:evenodd;stroke:none"
     d="M 4.9047766,8.7115067 C 4.6761306,8.666205 4.4431504,8.6499701 4.2181449,8.5921727 4.0719979,8.6338388 4.0261959,8.5108203 4.0323245,8.3880531 3.944037,8.0311009 3.8735414,7.6585793 3.6525031,7.3552302 3.4641141,7.1308712 3.5684316,6.8404843 3.5056161,6.5867756 3.3063974,6.5828226 3.3166734,7.003354 3.1805837,7.1498678 c -0.026472,0.2244146 -0.085533,0.444725 -0.062236,0.6737458 0.024654,0.1734877 -0.094144,0.5383652 0.1652758,0.547651 0.244455,-0.00825 0.5013112,0.012174 0.7069361,0.1574497 0.00482,0.1206347 -0.2409411,-0.00466 -0.1903505,0.144669 C 3.5534614,8.7125126 3.3430283,8.5520651 3.0993411,8.5648613 2.7573901,8.6112073 2.8793062,8.2224036 2.8701576,8.006253 2.8786311,7.6248254 2.8686051,7.2423691 2.8352748,6.8628971 2.9606426,6.7121466 3.129389,6.3922852 2.8125566,6.3732744 2.6959852,6.343478 2.5720719,6.3322221 2.4670889,6.2738071 2.2961923,6.4564817 2.0068548,6.3583567 1.8081325,6.463541 1.6741543,6.4574107 1.4781173,6.4874723 1.5478866,6.2696685 1.5827915,5.9162433 1.7271369,5.5792298 1.9287852,5.2885648 2.091851,5.1242632 2.298806,4.9449593 2.5113806,4.8148589 2.7882591,4.6455203 3.0799494,4.4522398 3.4182019,4.4651332 3.8515001,4.4238212 4.2451198,4.6482972 4.6432755,4.7832845 4.8966256,4.8678917 5.1065718,4.6430977 5.0775176,4.3983575 5.0840982,4.0894182 5.0132403,3.7846676 4.983221,3.4786294 4.9418139,3.3014282 4.8914992,3.12572 4.9073953,2.9422207 4.9997242,2.7769834 5.2030739,2.7312292 5.3796489,2.7441579 5.4870231,2.8893724 5.7320758,2.9602573 5.8453212,3.0755115 5.7110409,3.1567675 5.4494859,3.0446277 5.386027,3.2251733 c -0.03823,0.1975206 0.00737,0.3989803 0.1251867,0.5605093 0.14991,0.2649303 0.2695336,0.5611901 0.2441999,0.8709369 C 5.7709384,5.1159413 5.5232452,5.5387704 5.2476407,5.8878028 5.0089369,6.1473198 4.7005864,6.3485516 4.3538182,6.4261107 4.1643959,6.3661367 3.9605458,6.5713108 3.9526024,6.7612682 c -0.1802319,0.2598596 -0.057606,0.5742776 0.033646,0.8411963 0.097252,0.2315875 0.1667064,0.4838504 0.3030702,0.6941321 0.1735151,0.2335687 0.5093653,0.034043 0.7423929,0.150708 0.1426111,0.041405 0.2028723,0.1853555 0.0013,0.1625637 -0.1078511,-0.018996 0.037492,0.1448842 -0.1282093,0.1015513"
     id="path3427"
     inkscape:connector-curvature="0" /><path
     style="opacity:0.5;fill:#ff0000;stroke:#000000;stroke-width:0.43693575;stroke-dasharray:none"
     inkscape:connector-curvature="0"
     id="svg_2-6-9"
     d="M 4.2116994,16.46186"
     stroke-linecap="null"
     stroke-linejoin="null" /><path
     transform="matrix(0.02517961,0,0,0.02517961,-1.6817773,8.9096735)"
     style="opacity:0.40830449;fill:url(#radialGradient55186);fill-opacity:1;stroke:none;filter:url(#filter14661-2-8)"
     inkscape:connector-curvature="0"
     id="svg_1-4-1-5"
     d="M 139.13533,-43.460653 C 99.677627,-90.567999 82.520879,-139.09325 97.989994,-193.96078 c 31.452796,-111.56017 200.917496,-102.58306 237.803996,-1.8341 19.46829,53.17418 3.49381,104.834109 -19.32947,140.596387 -129.35313,-29.210938 -150.86263,-3.315658 -177.32919,11.73784 z"
     stroke-linecap="null"
     stroke-linejoin="null"
     sodipodi:nodetypes="csscc" /></svg>