<?xml version="1.0" encoding="UTF-8" standalone="no"?>
<!-- Generator: Adobe Illustrator 13.0.0, SVG Export Plug-In  -->

<svg
   xmlns:osb="http://www.openswatchbook.org/uri/2009/osb"
   xmlns:dc="http://purl.org/dc/elements/1.1/"
   xmlns:cc="http://creativecommons.org/ns#"
   xmlns:rdf="http://www.w3.org/1999/02/22-rdf-syntax-ns#"
   xmlns:svg="http://www.w3.org/2000/svg"
   xmlns="http://www.w3.org/2000/svg"
   xmlns:xlink="http://www.w3.org/1999/xlink"
   xmlns:sodipodi="http://sodipodi.sourceforge.net/DTD/sodipodi-0.dtd"
   xmlns:inkscape="http://www.inkscape.org/namespaces/inkscape"
   version="1.1"
   x="0px"
   y="0px"
   width="9.4292841"
   height="18.604385"
   viewBox="-0.781 -0.08 9.4292835 18.604385"
   enable-background="new -0.781 -0.08 576 506"
   xml:space="preserve"
   id="svg2"
   inkscape:version="0.91 r13725"
   sodipodi:docname="cheval.svg"
   inkscape:export-filename="/home/cyrille/Desktop/biche/biche_twitter.png"
   inkscape:export-xdpi="860.625"
   inkscape:export-ydpi="860.625"><metadata
     id="metadata18"><rdf:RDF><cc:Work
         rdf:about=""><dc:format>image/svg+xml</dc:format><dc:type
           rdf:resource="http://purl.org/dc/dcmitype/StillImage" /><dc:title /></cc:Work></rdf:RDF></metadata><sodipodi:namedview
     pagecolor="#ffffff"
     bordercolor="#666666"
     borderopacity="1"
     objecttolerance="10"
     gridtolerance="10"
     guidetolerance="10"
     inkscape:pageopacity="0"
     inkscape:pageshadow="2"
     inkscape:window-width="1600"
     inkscape:window-height="843"
     id="namedview16"
     showgrid="false"
     fit-margin-top="0.3"
     fit-margin-left="0.3"
     fit-margin-right="0.3"
     fit-margin-bottom="0.3"
     inkscape:zoom="58.441612"
     inkscape:cx="-1.4315237"
     inkscape:cy="12.393278"
     inkscape:window-x="1440"
     inkscape:window-y="451"
     inkscape:window-maximized="1"
     inkscape:current-layer="svg2"
     showguides="true"
     inkscape:guide-bbox="true" /><defs
     id="defs4"><linearGradient
       id="linearGradient55169"><stop
         style="stop-color:#ffffff;stop-opacity:0"
         offset="0"
         id="stop55171" /><stop
         id="stop55173"
         offset="0.35170388"
         style="stop-color:#ffffff;stop-opacity:0" /><stop
         id="stop55175"
         offset="0.84391612"
         style="stop-color:#ffffff;stop-opacity:0.62283737" /><stop
         style="stop-color:#ffffff;stop-opacity:0.89090902"
         offset="1"
         id="stop55177" /></linearGradient><filter
       inkscape:menu-tooltip="Glow of object's own color at the edges"
       inkscape:menu="Shadows and Glows"
       inkscape:label="Glow"
       id="filter14661-2-8"
       style="color-interpolation-filters:sRGB"><feGaussianBlur
         result="result91"
         stdDeviation="5"
         id="feGaussianBlur14663-2-5" /><feComposite
         operator="over"
         in="SourceGraphic"
         in2="result91"
         id="feComposite14665-4-0" /></filter><filter
       inkscape:menu-tooltip="Glow of object's own color at the edges"
       inkscape:menu="Shadows and Glows"
       inkscape:label="Glow"
       id="filter14661-2"
       style="color-interpolation-filters:sRGB"><feGaussianBlur
         result="result91"
         stdDeviation="5"
         id="feGaussianBlur14663-2" /><feComposite
         operator="over"
         in="SourceGraphic"
         in2="result91"
         id="feComposite14665-4" /></filter><linearGradient
       osb:paint="solid"
       id="linearGradient14917"><stop
         id="stop14919"
         offset="0"
         style="stop-color:#8f9dab;stop-opacity:1;" /></linearGradient><radialGradient
       inkscape:collect="always"
       xlink:href="#linearGradient55169"
       id="radialGradient55186"
       gradientUnits="userSpaceOnUse"
       gradientTransform="matrix(-1.4347771,1.1729741,-0.60089747,-0.73501541,415.78881,-620.40755)"
       cx="240.46808"
       cy="-274.17172"
       fx="240.46808"
       fy="-274.17172"
       r="145.26971" /></defs><text
     xml:space="preserve"
     style="font-style:normal;font-weight:normal;font-size:1.53795719px;line-height:125%;font-family:Sans;letter-spacing:0px;word-spacing:0px;fill:#000000;fill-opacity:1;stroke:none"
     x="0.73343688"
     y="20.763985"
     id="text14023"
     sodipodi:linespacing="125%"><tspan
       sodipodi:role="line"
       id="tspan14025"
       x="0.73343688"
       y="20.763985"
       style="font-style:normal;font-variant:normal;font-weight:normal;font-stretch:normal;font-family:Ubuntu;-inkscape-font-specification:Ubuntu" /></text>
<flowRoot
     xml:space="preserve"
     id="flowRoot14027"
     style="font-style:normal;font-weight:normal;font-size:40px;line-height:125%;font-family:Sans;letter-spacing:0px;word-spacing:0px;fill:#000000;fill-opacity:1;stroke:none"
     transform="matrix(0.03844893,0,0,0.03844893,-0.4969289,-12.316018)"><flowRegion
       id="flowRegion14029"><rect
         id="rect14031"
         width="104"
         height="204"
         x="198"
         y="1364.189" /></flowRegion><flowPara
       id="flowPara14033" /></flowRoot><text
     xml:space="preserve"
     style="font-style:normal;font-weight:normal;font-size:2.12992406px;line-height:125%;font-family:Sans;letter-spacing:0px;word-spacing:0px;fill:#000000;fill-opacity:1;stroke:none"
     x="30.265745"
     y="-6.3407917"
     id="text11663"
     sodipodi:linespacing="125%"><tspan
       sodipodi:role="line"
       x="30.265745"
       y="-6.3407917"
       style="font-style:normal;font-variant:normal;font-weight:normal;font-stretch:normal;font-size:1.84554863px;font-family:'Liberation Sans';-inkscape-font-specification:'Liberation Sans';text-align:center;text-anchor:middle"
       id="tspan13579" /></text>
<g
     transform="matrix(0.03844893,0,0,0.03844893,-0.4969289,-29.073061)"
     inkscape:label="panneau cartopartie"
     id="layer2"><text
       sodipodi:linespacing="125%"
       id="text15732"
       y="761.2832"
       x="1838.4775"
       style="font-style:normal;font-weight:normal;font-size:40px;line-height:125%;font-family:Sans;letter-spacing:0px;word-spacing:0px;fill:#000000;fill-opacity:1;stroke:none"
       xml:space="preserve"><tspan
         y="761.2832"
         x="1838.4775"
         id="tspan15734"
         sodipodi:role="line" /></text>
</g><g
     transform="matrix(0.03844893,0,0,0.03844893,-0.4969289,-29.073061)"
     inkscape:label="Layer 2"
     id="layer3" /><path
     style="fill:#ffffff;fill-opacity:1;stroke:#f91a0e;stroke-width:17.42607307;stroke-miterlimit:4;stroke-dasharray:none;stroke-opacity:1;filter:url(#filter14661-2)"
     inkscape:connector-curvature="0"
     id="svg_1-4-1"
     d="M 230.78146,243.64766 C 211.1564,-71.696166 57.070697,-48.823778 97.989938,-193.96076 129.44271,-305.52099 298.90754,-296.54389 335.79403,-195.7949 386.14151,-58.279589 217.62541,-71.78517 230.78146,243.64766 Z"
     stroke-linecap="null"
     stroke-linejoin="null"
     sodipodi:nodetypes="cssc"
     transform="matrix(0.02895542,0,0,0.02895542,-2.383288,9.6691004)" /><path
     style="opacity:0.5;fill:#ff0000;stroke:#000000;stroke-width:0.43693575;stroke-dasharray:none"
     inkscape:connector-curvature="0"
     id="svg_2-6-9"
     d="M 4.2116994,16.46186"
     stroke-linecap="null"
     stroke-linejoin="null" /><g
     transform="matrix(0.07684275,0,0,0.07684275,-0.57786791,0.6816637)"
     id="g4143"><path
       style="fill:#000000;fill-opacity:1;fill-rule:evenodd;stroke:none"
       d="m 83.854672,31.468759 c -2.204602,1.340452 -1.467205,4.620359 -4.719902,4.437363 -3.921182,1.585935 -7.311605,4.516917 -9.028743,8.419487 -2.276473,3.459564 -6.588809,4.647232 -10.501351,4.955647 -4.370934,3.864506 -10.480048,2.286152 -15.693869,1.838138 -4.473579,-0.64181 -8.710463,2.228036 -10.464619,6.254165 -1.615457,2.885743 -1.415746,6.37398 0.08084,9.260448 1.425625,3.504191 2.97581,7.904273 -0.695214,10.488865 -0.354795,3.408459 2.107792,6.435342 1.670435,10.000852 0.716857,2.828311 3.217816,5.940898 6.735894,4.739301 0.34068,-2.719873 -4.758097,-4.147381 -4.147583,-7.818396 -1.457955,-3.043751 -0.545322,-6.513372 1.485374,-9.072127 1.142221,-2.915909 2.958249,-5.382518 4.564506,-8.031691 0.786741,-1.736629 0.251766,-4.291185 2.09802,-1.729077 2.966402,1.497865 6.320099,2.771318 9.560041,2.999331 3.796718,0.51583 7.657684,0.752489 11.365316,1.69027 3.612369,1.097307 7.04313,2.981043 10.517325,4.549313 3.651626,1.458353 4.042682,6.058509 6.850565,8.169196 1.882782,1.105433 -1.013055,2.082452 0.823106,3.482968 1.053526,2.377381 5.729263,1.285913 2.689432,-1.315918 -1.035863,-2.742907 -2.030898,-5.291891 -3.806062,-7.736562 -1.704945,-3.159981 -3.956587,-6.103963 -7.420404,-7.421429 -2.260158,-1.182576 -3.460126,-3.019242 -0.797477,-4.704759 2.849938,-2.71771 2.715736,-6.676396 1.675358,-10.126091 -0.140462,-3.715413 1.700676,-7.171265 3.398221,-10.33538 2.703046,1.93564 6.08391,1.315261 9.235989,1.807685 1.279063,1.079064 4.532879,2.006354 3.810623,0.473455 2.53798,-0.326397 2.365079,-4.692196 0.125464,-5.174115 -2.526945,-1.790557 -6.037774,-4.82594 -7.421487,-6.160264 2.022137,1.01237 -1.023964,-1.205115 0.152812,-2.39875 -0.632671,-3.913146 -1.680537,3.699781 -2.330156,-0.07312 0.07453,-0.486732 0.02072,-0.996451 0.18755,-1.4688 z m 2.15625,7.781249 c 1.081067,0.878645 -1.56452,0.898855 0,0 z m 0.499999,0.125 c -0.195438,0.760954 2.487013,4.45072 0.681563,1.745156 -0.647991,-0.470124 -3.263325,-0.890683 -2.213906,-1.389511 0.39695,0.73583 1.463335,0.513141 1.532343,-0.355645 z m 5.562499,4.093749 c 3.240339,0.101697 -3.160487,-0.01513 0.21875,1.25 1.169347,-0.662931 -1.425369,-0.957658 0.595469,-0.555675 -0.127494,1.733435 -3.452979,-0.738079 -0.814219,-0.694325 z m 2.3125,0.6875 c -1.83992,0.56321 -0.998541,4.396217 -3.548014,1.937155 -0.990942,-1.15197 3.010806,1.745134 1.797964,-0.843405 -2.268652,-0.197318 1.418826,-0.487987 1.75005,-1.09375 z"
       id="path3485"
       inkscape:connector-curvature="0" /><path
       style="fill:#000000;fill-opacity:1;fill-rule:evenodd;stroke:none"
       d="m 42.716887,67.777808 c -0.347068,3.573248 4.717896,4.154806 6.247662,6.939866 1.665766,3.553977 4.276023,6.344214 7.54435,8.475229 1.170176,2.10394 4.768436,2.415807 3.698825,4.735357 0.05915,2.981497 6.450758,4.609455 4.272893,0.407156 -2.261076,-2.383673 -3.720453,-5.278726 -6.749,-6.851021 -2.042608,-1.608222 -3.376003,-4.757693 -3.381432,-6.665154 0.19322,-3.376537 0.42207,-7.79426 -4.216995,-7.705175 -2.252217,-0.100951 -5.22825,-2.712362 -6.331345,-2.717935 -0.323505,1.137711 -0.554894,2.314873 -1.084958,3.381677 z m 49.48256,-23.586851 c 0.0314,1.397852 0.981375,-0.580941 0,0 z"
       id="path3491"
       inkscape:connector-curvature="0" /><path
       style="fill:#000000;fill-opacity:1;fill-rule:evenodd;stroke:none"
       d="m 75.159674,64.876254 c 1.851852,4.056867 8.845334,4.118361 8.905464,9.153597 -0.179096,1.815741 -0.969322,4.25747 -1.918278,1.254117 0.186462,-3.995808 -5.068779,-4.129407 -7.522678,-6.551481 -2.490316,-1.13832 -0.731024,-2.458503 0.415965,-3.720337 l 0.119527,-0.135896 0,0 z"
       id="path3495"
       inkscape:connector-curvature="0" /><path
       style="fill:#000000;fill-opacity:1;fill-rule:evenodd;stroke:none"
       d="m 80.318423,77.888752 c 0.05933,3.120484 -3.864362,1.055571 -4.364804,4.308027 -0.211725,3.826531 8.342677,-1.151515 4.669042,-3.668066 l -0.304238,-0.639961 z"
       id="path3499"
       inkscape:connector-curvature="0" /><path
       style="fill:#000000;fill-opacity:1;fill-rule:evenodd;stroke:none"
       d="m 33.530931,57.305006 c -2.737363,-2.791949 -6.632703,0.701403 -6.556291,3.899754 -0.868396,3.038758 -3.301266,7.314664 -6.917457,6.880244 1.603881,0.704635 0.994325,0.755818 -0.12875,1.54 2.654842,0.649774 -1.677002,0.584426 0.185625,1.510155 1.198169,1.523863 -2.381232,0.968977 0.05516,1.44375 -2.999008,1.12326 0.0392,-0.09157 0.914219,1.331094 -1.275281,0.355657 -3.980329,0.281942 -1.138686,0.658325 2.955434,0.643812 6.495246,-0.166965 7.913904,-3.090329 1.499814,-3.105476 3.856709,-6.021831 3.862567,-9.623475 0.48374,-1.521877 1.233394,-2.99517 1.809713,-4.549518 z"
       id="path3507"
       inkscape:connector-curvature="0" /><path
       style="fill:#000000;fill-opacity:1;fill-rule:evenodd;stroke:none"
       d="m 72.773424,33.74376 c 2.041897,-0.319562 2.990196,1.183958 0.458614,1.129746 -3.573131,-0.360423 -0.0098,0.748609 1.646386,0.795253 -1.818377,0.201187 -3.35239,0.384616 -0.562559,0.604277 1.209191,0.964453 -2.527488,0.238797 -3.325314,-0.396599 -0.440918,0.118589 1.220816,2.756219 -1.178552,1.546756 -3.760598,-1.498619 2.698743,2.004671 -0.552099,1.610695 -1.598139,-0.3827 -3.890041,-3.152992 -2.068935,-0.290539 0.143709,1.820557 -3.787575,-0.292935 -0.810506,1.392253 3.425321,-0.150743 -0.09567,1.905479 -1.332033,0.923156 2.68384,2.872997 -1.152133,0.255197 -2.54125,1.2575 1.996987,0.06863 3.457203,3.578638 0.237813,2.643281 -1.735469,-1.111869 -4.081193,-0.0027 -1.401375,0.893028 1.313923,1.982708 -3.500479,0.190508 -4.503676,-0.467325 -1.827763,-0.798898 -3.772733,0.917769 -0.765124,0.618848 0.286268,1.282248 -4.270805,1.618699 -0.836817,1.704171 2.829433,0.892241 -3.378077,1.177359 -0.179456,2.172189 3.252425,-0.03087 6.754385,-0.661534 9.966743,-1.621551 3.054486,-1.138967 5.713479,-3.566085 6.670641,-6.738891 2.567544,-2.465471 5.548742,-4.737269 8.904998,-5.979999 -2.302493,-1.33425 -5.1287,-2.922642 -7.827499,-1.796249 z"
       id="path3511"
       inkscape:connector-curvature="0" /><path
       style="fill:#000000;fill-opacity:1;fill-rule:evenodd;stroke:none"
       d="m 86.658422,36.002509 c 2.21888,-0.679163 3.049471,4.057537 1.235313,1.030156 -0.37832,-0.380791 -0.782899,-0.738196 -1.235313,-1.030156 z"
       id="path3519"
       inkscape:connector-curvature="0" /></g><path
     transform="matrix(0.02517961,0,0,0.02517961,-1.6817773,8.9096735)"
     style="opacity:0.40830449;fill:url(#radialGradient55186);fill-opacity:1;stroke:none;filter:url(#filter14661-2-8)"
     inkscape:connector-curvature="0"
     id="svg_1-4-1-5"
     d="M 139.13533,-43.460653 C 99.677627,-90.567999 82.520879,-139.09325 97.989994,-193.96078 c 31.452796,-111.56017 200.917496,-102.58306 237.803996,-1.8341 19.46829,53.17418 3.49381,104.834109 -19.32947,140.596387 -129.35313,-29.210938 -150.86263,-3.315658 -177.32919,11.73784 z"
     stroke-linecap="null"
     stroke-linejoin="null"
     sodipodi:nodetypes="csscc" /></svg>