<?xml version="1.0" encoding="UTF-8" standalone="no"?>
<!-- Generator: Adobe Illustrator 13.0.0, SVG Export Plug-In  -->

<svg
   xmlns:osb="http://www.openswatchbook.org/uri/2009/osb"
   xmlns:dc="http://purl.org/dc/elements/1.1/"
   xmlns:cc="http://creativecommons.org/ns#"
   xmlns:rdf="http://www.w3.org/1999/02/22-rdf-syntax-ns#"
   xmlns:svg="http://www.w3.org/2000/svg"
   xmlns="http://www.w3.org/2000/svg"
   xmlns:xlink="http://www.w3.org/1999/xlink"
   xmlns:sodipodi="http://sodipodi.sourceforge.net/DTD/sodipodi-0.dtd"
   xmlns:inkscape="http://www.inkscape.org/namespaces/inkscape"
   version="1.1"
   x="0px"
   y="0px"
   width="9.4292841"
   height="18.604385"
   viewBox="-0.781 -0.08 9.4292835 18.604385"
   enable-background="new -0.781 -0.08 576 506"
   xml:space="preserve"
   id="svg2"
   inkscape:version="0.91 r13725"
   sodipodi:docname="crapaud.svg"
   inkscape:export-filename="/home/cyrille/Desktop/biche/biche_twitter.png"
   inkscape:export-xdpi="860.625"
   inkscape:export-ydpi="860.625"><metadata
     id="metadata18"><rdf:RDF><cc:Work
         rdf:about=""><dc:format>image/svg+xml</dc:format><dc:type
           rdf:resource="http://purl.org/dc/dcmitype/StillImage" /><dc:title /></cc:Work></rdf:RDF></metadata><sodipodi:namedview
     pagecolor="#ffffff"
     bordercolor="#666666"
     borderopacity="1"
     objecttolerance="10"
     gridtolerance="10"
     guidetolerance="10"
     inkscape:pageopacity="0"
     inkscape:pageshadow="2"
     inkscape:window-width="1600"
     inkscape:window-height="843"
     id="namedview16"
     showgrid="false"
     fit-margin-top="0.3"
     fit-margin-left="0.3"
     fit-margin-right="0.3"
     fit-margin-bottom="0.3"
     inkscape:zoom="58.441612"
     inkscape:cx="-1.8164472"
     inkscape:cy="14.966367"
     inkscape:window-x="1440"
     inkscape:window-y="451"
     inkscape:window-maximized="1"
     inkscape:current-layer="svg2"
     showguides="true"
     inkscape:guide-bbox="true" /><defs
     id="defs4"><linearGradient
       id="linearGradient55169"><stop
         style="stop-color:#ffffff;stop-opacity:0"
         offset="0"
         id="stop55171" /><stop
         id="stop55173"
         offset="0.35170388"
         style="stop-color:#ffffff;stop-opacity:0" /><stop
         id="stop55175"
         offset="0.84391612"
         style="stop-color:#ffffff;stop-opacity:0.62283737" /><stop
         style="stop-color:#ffffff;stop-opacity:0.89090902"
         offset="1"
         id="stop55177" /></linearGradient><filter
       inkscape:menu-tooltip="Glow of object's own color at the edges"
       inkscape:menu="Shadows and Glows"
       inkscape:label="Glow"
       id="filter14661-2-8"
       style="color-interpolation-filters:sRGB"><feGaussianBlur
         result="result91"
         stdDeviation="5"
         id="feGaussianBlur14663-2-5" /><feComposite
         operator="over"
         in="SourceGraphic"
         in2="result91"
         id="feComposite14665-4-0" /></filter><filter
       inkscape:menu-tooltip="Glow of object's own color at the edges"
       inkscape:menu="Shadows and Glows"
       inkscape:label="Glow"
       id="filter14661-2"
       style="color-interpolation-filters:sRGB"><feGaussianBlur
         result="result91"
         stdDeviation="5"
         id="feGaussianBlur14663-2" /><feComposite
         operator="over"
         in="SourceGraphic"
         in2="result91"
         id="feComposite14665-4" /></filter><linearGradient
       osb:paint="solid"
       id="linearGradient14917"><stop
         id="stop14919"
         offset="0"
         style="stop-color:#8f9dab;stop-opacity:1;" /></linearGradient><radialGradient
       inkscape:collect="always"
       xlink:href="#linearGradient55169"
       id="radialGradient55186"
       gradientUnits="userSpaceOnUse"
       gradientTransform="matrix(-1.4347771,1.1729741,-0.60089747,-0.73501541,415.78881,-620.40755)"
       cx="240.46808"
       cy="-274.17172"
       fx="240.46808"
       fy="-274.17172"
       r="145.26971" /></defs><text
     xml:space="preserve"
     style="font-style:normal;font-weight:normal;font-size:1.53795719px;line-height:125%;font-family:Sans;letter-spacing:0px;word-spacing:0px;fill:#000000;fill-opacity:1;stroke:none"
     x="0.73343688"
     y="20.763985"
     id="text14023"
     sodipodi:linespacing="125%"><tspan
       sodipodi:role="line"
       id="tspan14025"
       x="0.73343688"
       y="20.763985"
       style="font-style:normal;font-variant:normal;font-weight:normal;font-stretch:normal;font-family:Ubuntu;-inkscape-font-specification:Ubuntu" /></text>
<flowRoot
     xml:space="preserve"
     id="flowRoot14027"
     style="font-style:normal;font-weight:normal;font-size:40px;line-height:125%;font-family:Sans;letter-spacing:0px;word-spacing:0px;fill:#000000;fill-opacity:1;stroke:none"
     transform="matrix(0.03844893,0,0,0.03844893,-0.4969289,-12.316018)"><flowRegion
       id="flowRegion14029"><rect
         id="rect14031"
         width="104"
         height="204"
         x="198"
         y="1364.189" /></flowRegion><flowPara
       id="flowPara14033" /></flowRoot><text
     xml:space="preserve"
     style="font-style:normal;font-weight:normal;font-size:2.12992406px;line-height:125%;font-family:Sans;letter-spacing:0px;word-spacing:0px;fill:#000000;fill-opacity:1;stroke:none"
     x="30.265745"
     y="-6.3407917"
     id="text11663"
     sodipodi:linespacing="125%"><tspan
       sodipodi:role="line"
       x="30.265745"
       y="-6.3407917"
       style="font-style:normal;font-variant:normal;font-weight:normal;font-stretch:normal;font-size:1.84554863px;font-family:'Liberation Sans';-inkscape-font-specification:'Liberation Sans';text-align:center;text-anchor:middle"
       id="tspan13579" /></text>
<g
     transform="matrix(0.03844893,0,0,0.03844893,-0.4969289,-29.073061)"
     inkscape:label="panneau cartopartie"
     id="layer2"><text
       sodipodi:linespacing="125%"
       id="text15732"
       y="761.2832"
       x="1838.4775"
       style="font-style:normal;font-weight:normal;font-size:40px;line-height:125%;font-family:Sans;letter-spacing:0px;word-spacing:0px;fill:#000000;fill-opacity:1;stroke:none"
       xml:space="preserve"><tspan
         y="761.2832"
         x="1838.4775"
         id="tspan15734"
         sodipodi:role="line" /></text>
</g><g
     transform="matrix(0.03844893,0,0,0.03844893,-0.4969289,-29.073061)"
     inkscape:label="Layer 2"
     id="layer3" /><path
     style="fill:#ffffff;fill-opacity:1;stroke:#f91a0e;stroke-width:17.42607307;stroke-miterlimit:4;stroke-dasharray:none;stroke-opacity:1;filter:url(#filter14661-2)"
     inkscape:connector-curvature="0"
     id="svg_1-4-1"
     d="M 230.78146,243.64766 C 211.1564,-71.696166 57.070697,-48.823778 97.989938,-193.96076 129.44271,-305.52099 298.90754,-296.54389 335.79403,-195.7949 386.14151,-58.279589 217.62541,-71.78517 230.78146,243.64766 Z"
     stroke-linecap="null"
     stroke-linejoin="null"
     sodipodi:nodetypes="cssc"
     transform="matrix(0.02895542,0,0,0.02895542,-2.383288,9.6691004)" /><path
     style="opacity:0.5;fill:#ff0000;stroke:#000000;stroke-width:0.43693575;stroke-dasharray:none"
     inkscape:connector-curvature="0"
     id="svg_2-6-9"
     d="M 4.2116994,16.46186"
     stroke-linecap="null"
     stroke-linejoin="null" /><path
     style="fill:#000000"
     d="M 3.9979464,3.3572523 C 3.6504989,3.4049058 3.3008378,3.4335943 2.9510225,3.4537967 2.6974256,3.489444 2.5364226,3.7224701 2.2940981,3.7996108 2.107597,3.9050835 1.8163727,3.993308 1.7980417,4.2432921 1.8945856,4.4812914 1.6309917,4.6940508 1.7771743,4.9281996 1.8065411,5.0771297 1.9905649,5.3564494 1.8893431,5.4456058 1.7776618,5.2012156 1.5592273,5.0258134 1.3155862,4.9140041 1.1638282,4.8146696 0.77818068,4.7096242 0.87905583,5.0270568 0.96028279,5.3855082 1.0177411,5.7486625 1.0759863,6.111401 1.1563618,6.4340897 1.2761664,6.791209 1.5618304,6.9868282 1.7084632,7.00399 1.4981529,6.5962631 1.7305047,6.7814862 1.9334623,7.0276036 2.2188413,7.1993482 2.5080065,7.3268469 2.7310272,7.2386723 2.2830967,7.0740463 2.2131206,6.9660641 2.0656753,6.7724457 2.5840357,7.0009921 2.3611201,6.7596987 2.1021301,6.6989813 2.3163493,6.3566549 2.0370023,6.3521742 1.9520458,6.3023304 1.6274899,6.0920122 1.7693535,6.0462843 2.0035685,6.0774171 2.2114963,6.3451852 2.447078,6.2502211 2.6823324,6.0549751 2.4265992,5.7433672 2.5064611,5.4921161 2.5425013,5.211272 2.5505226,4.8782619 2.7554429,4.662303 2.9752878,4.6466873 2.6897145,4.9726424 2.6984879,5.0901781 2.5818207,5.4112923 2.6778027,5.8275047 3.0072591,5.9798226 3.2069757,6.0728876 3.6283475,6.2518331 3.6123002,5.874308 3.6547709,5.6916347 3.7433203,5.344129 3.941894,5.3412684 3.8876445,5.5952581 3.6635949,5.8214733 3.7493845,6.1001275 3.8517763,6.4364871 4.085197,6.7132975 4.2844698,6.9967274 4.6952841,7.1203393 5.0893228,7.3055319 5.5113033,7.3884799 5.701309,7.325105 5.0701056,7.0223578 5.3612743,7.0191145 5.5441665,7.1309007 5.6623464,6.8777338 5.4345106,6.8419977 5.234354,6.7752022 4.9626941,6.6977874 5.052678,6.4263294 4.92254,6.3530802 4.6433125,6.5328523 4.6871893,6.2490203 4.8239226,6.0314152 5.1028348,6.0292266 5.324493,5.956758 5.7879902,5.8342488 6.2584165,5.7221299 6.6962596,5.5233032 6.8691399,5.4101545 6.693281,5.2796987 6.5585637,5.3787916 6.0423148,5.4577816 5.5216176,5.5451839 5.0034241,5.5852473 5.1472479,5.3946907 5.4751956,5.497968 5.6889775,5.4095658 6.0181286,5.3358505 6.3477264,5.2464642 6.6876474,5.2485473 6.8934514,5.1234904 6.8165214,4.7942443 6.8247297,4.5784058 6.8062857,4.3552426 6.7466811,4.0221329 6.4483251,4.0637767 6.2020388,4.0564066 5.9266665,4.0876329 5.7302656,3.9029704 5.3978889,3.7190476 4.9952652,3.7640166 4.6565538,3.5926477 4.4404787,3.5061858 4.2462,3.3297707 3.9979464,3.3572523 Z m -0.010849,0.9591852 c 0.1966238,0.083556 -0.078768,0.1993283 -0.024292,0.0053 l 0.024292,-0.0053 0,0 z m -0.2781391,0.00148 c 0.2419949,0.076927 -0.1693633,0.207773 -0.050305,0.014796 l 0.02352,-0.010994 0.02678,-0.0038 4.6e-6,-2.4e-6 z m 0.5257026,0.1686588 c 0.2576084,0.045098 -0.1548175,0.1778792 -0.043393,0.011343 l 0.043397,-0.011342 -3.5e-6,-1e-6 z M 3.920028,4.5847105 c 0.1966137,0.083227 -0.078853,0.1988695 -0.024292,0.0053 l 0.024292,-0.0053 z m 1.6274094,0.086305 C 5.7725332,4.6162081 6.1041906,4.9452496 5.7488445,5.0238461 5.5610402,5.1166293 5.0712674,4.8719141 5.3653534,4.691936 c 0.058395,-0.019825 0.1209415,-0.023161 0.182084,-0.02092 z m 0.058685,0.066083 C 5.3361876,4.6970786 5.3706922,5.015488 5.6267124,4.9567352 5.872744,4.95853 5.8702133,4.7233906 5.6061224,4.7370985 Z M 4.7692397,4.8524964 C 4.8976536,4.9932336 4.6885077,5.3039692 4.6060028,5.1551943 4.6913852,5.0719672 4.7425711,4.9666288 4.7692397,4.8524964 Z M 5.8985636,5.8733259 C 5.7136307,5.92034 5.5286977,5.967354 5.3437648,6.0143681 5.3824694,6.2366634 4.8682243,6.2194394 5.1872524,6.3815057 c 0.1412617,0.07586 0.3152941,0.093064 0.3012882,0.2982643 0.2951735,0.022854 0.2490723,0.4615553 0.4703023,0.6171678 0.06805,-0.086551 -0.0097,-0.2903883 -0.012127,-0.4263507 0.013317,-0.067259 -0.080777,-0.2296187 0.032123,-0.2087071 0.1703394,0 0.3406788,0 0.5110182,0 C 6.3135366,6.5458924 6.1213506,6.4318157 6.0422674,6.2227372 5.985764,6.1100281 5.9408168,5.9919729 5.8985636,5.8733259 Z"
     id="path53771"
     inkscape:connector-curvature="0" /><path
     transform="matrix(0.02517961,0,0,0.02517961,-1.6817773,8.9096735)"
     style="opacity:0.40830449;fill:url(#radialGradient55186);fill-opacity:1;stroke:none;filter:url(#filter14661-2-8)"
     inkscape:connector-curvature="0"
     id="svg_1-4-1-5"
     d="M 139.13533,-43.460653 C 99.677627,-90.567999 82.520879,-139.09325 97.989994,-193.96078 c 31.452796,-111.56017 200.917496,-102.58306 237.803996,-1.8341 19.46829,53.17418 3.49381,104.834109 -19.32947,140.596387 -129.35313,-29.210938 -150.86263,-3.315658 -177.32919,11.73784 z"
     stroke-linecap="null"
     stroke-linejoin="null"
     sodipodi:nodetypes="csscc" /></svg>