<?xml version="1.0" encoding="UTF-8" standalone="no"?>
<!-- Generator: Adobe Illustrator 13.0.0, SVG Export Plug-In  -->

<svg
   xmlns:osb="http://www.openswatchbook.org/uri/2009/osb"
   xmlns:dc="http://purl.org/dc/elements/1.1/"
   xmlns:cc="http://creativecommons.org/ns#"
   xmlns:rdf="http://www.w3.org/1999/02/22-rdf-syntax-ns#"
   xmlns:svg="http://www.w3.org/2000/svg"
   xmlns="http://www.w3.org/2000/svg"
   xmlns:xlink="http://www.w3.org/1999/xlink"
   xmlns:sodipodi="http://sodipodi.sourceforge.net/DTD/sodipodi-0.dtd"
   xmlns:inkscape="http://www.inkscape.org/namespaces/inkscape"
   version="1.1"
   x="0px"
   y="0px"
   width="9.4292841"
   height="18.604385"
   viewBox="-0.781 -0.08 9.4292835 18.604385"
   enable-background="new -0.781 -0.08 576 506"
   xml:space="preserve"
   id="svg2"
   inkscape:version="0.91 r13725"
   sodipodi:docname="dromadaire.svg"
   inkscape:export-filename="/home/cyrille/Desktop/biche/biche_twitter.png"
   inkscape:export-xdpi="860.625"
   inkscape:export-ydpi="860.625"><metadata
     id="metadata18"><rdf:RDF><cc:Work
         rdf:about=""><dc:format>image/svg+xml</dc:format><dc:type
           rdf:resource="http://purl.org/dc/dcmitype/StillImage" /><dc:title /></cc:Work></rdf:RDF></metadata><sodipodi:namedview
     pagecolor="#ffffff"
     bordercolor="#666666"
     borderopacity="1"
     objecttolerance="10"
     gridtolerance="10"
     guidetolerance="10"
     inkscape:pageopacity="0"
     inkscape:pageshadow="2"
     inkscape:window-width="1600"
     inkscape:window-height="843"
     id="namedview16"
     showgrid="false"
     fit-margin-top="0.3"
     fit-margin-left="0.3"
     fit-margin-right="0.3"
     fit-margin-bottom="0.3"
     inkscape:zoom="82.64892"
     inkscape:cx="1.5619768"
     inkscape:cy="13.510504"
     inkscape:window-x="1440"
     inkscape:window-y="451"
     inkscape:window-maximized="1"
     inkscape:current-layer="svg2"
     showguides="true"
     inkscape:guide-bbox="true" /><defs
     id="defs4"><linearGradient
       id="linearGradient55169"><stop
         style="stop-color:#ffffff;stop-opacity:0"
         offset="0"
         id="stop55171" /><stop
         id="stop55173"
         offset="0.35170388"
         style="stop-color:#ffffff;stop-opacity:0" /><stop
         id="stop55175"
         offset="0.84391612"
         style="stop-color:#ffffff;stop-opacity:0.62283737" /><stop
         style="stop-color:#ffffff;stop-opacity:0.89090902"
         offset="1"
         id="stop55177" /></linearGradient><filter
       inkscape:menu-tooltip="Glow of object's own color at the edges"
       inkscape:menu="Shadows and Glows"
       inkscape:label="Glow"
       id="filter14661-2-8"
       style="color-interpolation-filters:sRGB"><feGaussianBlur
         result="result91"
         stdDeviation="5"
         id="feGaussianBlur14663-2-5" /><feComposite
         operator="over"
         in="SourceGraphic"
         in2="result91"
         id="feComposite14665-4-0" /></filter><filter
       inkscape:menu-tooltip="Glow of object's own color at the edges"
       inkscape:menu="Shadows and Glows"
       inkscape:label="Glow"
       id="filter14661-2"
       style="color-interpolation-filters:sRGB"><feGaussianBlur
         result="result91"
         stdDeviation="5"
         id="feGaussianBlur14663-2" /><feComposite
         operator="over"
         in="SourceGraphic"
         in2="result91"
         id="feComposite14665-4" /></filter><linearGradient
       osb:paint="solid"
       id="linearGradient14917"><stop
         id="stop14919"
         offset="0"
         style="stop-color:#8f9dab;stop-opacity:1;" /></linearGradient><radialGradient
       inkscape:collect="always"
       xlink:href="#linearGradient55169"
       id="radialGradient55186"
       gradientUnits="userSpaceOnUse"
       gradientTransform="matrix(-1.4347771,1.1729741,-0.60089747,-0.73501541,415.78881,-620.40755)"
       cx="240.46808"
       cy="-274.17172"
       fx="240.46808"
       fy="-274.17172"
       r="145.26971" /></defs><text
     xml:space="preserve"
     style="font-style:normal;font-weight:normal;font-size:1.53795719px;line-height:125%;font-family:Sans;letter-spacing:0px;word-spacing:0px;fill:#000000;fill-opacity:1;stroke:none"
     x="0.73343688"
     y="20.763985"
     id="text14023"
     sodipodi:linespacing="125%"><tspan
       sodipodi:role="line"
       id="tspan14025"
       x="0.73343688"
       y="20.763985"
       style="font-style:normal;font-variant:normal;font-weight:normal;font-stretch:normal;font-family:Ubuntu;-inkscape-font-specification:Ubuntu" /></text>
<flowRoot
     xml:space="preserve"
     id="flowRoot14027"
     style="font-style:normal;font-weight:normal;font-size:40px;line-height:125%;font-family:Sans;letter-spacing:0px;word-spacing:0px;fill:#000000;fill-opacity:1;stroke:none"
     transform="matrix(0.03844893,0,0,0.03844893,-0.4969289,-12.316018)"><flowRegion
       id="flowRegion14029"><rect
         id="rect14031"
         width="104"
         height="204"
         x="198"
         y="1364.189" /></flowRegion><flowPara
       id="flowPara14033" /></flowRoot><text
     xml:space="preserve"
     style="font-style:normal;font-weight:normal;font-size:2.12992406px;line-height:125%;font-family:Sans;letter-spacing:0px;word-spacing:0px;fill:#000000;fill-opacity:1;stroke:none"
     x="30.265745"
     y="-6.3407917"
     id="text11663"
     sodipodi:linespacing="125%"><tspan
       sodipodi:role="line"
       x="30.265745"
       y="-6.3407917"
       style="font-style:normal;font-variant:normal;font-weight:normal;font-stretch:normal;font-size:1.84554863px;font-family:'Liberation Sans';-inkscape-font-specification:'Liberation Sans';text-align:center;text-anchor:middle"
       id="tspan13579" /></text>
<g
     transform="matrix(0.03844893,0,0,0.03844893,-0.4969289,-29.073061)"
     inkscape:label="panneau cartopartie"
     id="layer2"><text
       sodipodi:linespacing="125%"
       id="text15732"
       y="761.2832"
       x="1838.4775"
       style="font-style:normal;font-weight:normal;font-size:40px;line-height:125%;font-family:Sans;letter-spacing:0px;word-spacing:0px;fill:#000000;fill-opacity:1;stroke:none"
       xml:space="preserve"><tspan
         y="761.2832"
         x="1838.4775"
         id="tspan15734"
         sodipodi:role="line" /></text>
</g><g
     transform="matrix(0.03844893,0,0,0.03844893,-0.4969289,-29.073061)"
     inkscape:label="Layer 2"
     id="layer3" /><path
     style="fill:#ffffff;fill-opacity:1;stroke:#f91a0e;stroke-width:17.42607307;stroke-miterlimit:4;stroke-dasharray:none;stroke-opacity:1;filter:url(#filter14661-2)"
     inkscape:connector-curvature="0"
     id="svg_1-4-1"
     d="M 230.78146,243.64766 C 211.1564,-71.696166 57.070697,-48.823778 97.989938,-193.96076 129.44271,-305.52099 298.90754,-296.54389 335.79403,-195.7949 386.14151,-58.279589 217.62541,-71.78517 230.78146,243.64766 Z"
     stroke-linecap="null"
     stroke-linejoin="null"
     sodipodi:nodetypes="cssc"
     transform="matrix(0.02895542,0,0,0.02895542,-2.383288,9.6691004)" /><path
     style="opacity:0.5;fill:#ff0000;stroke:#000000;stroke-width:0.43693575;stroke-dasharray:none"
     inkscape:connector-curvature="0"
     id="svg_2-6-9"
     d="M 4.2116994,16.46186"
     stroke-linecap="null"
     stroke-linejoin="null" /><path
     style="fill:#000000;fill-opacity:1;fill-rule:evenodd;stroke:none;stroke-width:0.11499998;stroke-linecap:butt;stroke-linejoin:miter;stroke-miterlimit:22.9260006;stroke-dasharray:none;stroke-opacity:1"
     d="M 2.3753279,3.7121175 C 2.5502968,3.4898305 2.7928313,3.2185669 3.1087458,3.2912854 3.3937392,3.3436417 3.5224754,3.6482291 3.7846521,3.7487905 4.0617936,3.895594 4.3874439,3.9832716 4.5784394,4.2519586 4.6947918,4.4655911 5.1684727,4.6115088 5.1264179,4.2304672 5.1464376,4.0241802 5.0676606,3.7840882 5.1807059,3.6021025 5.2958687,3.4119648 5.4848781,3.1447867 5.734436,3.3498327 5.9935742,3.4462586 6.3374697,3.3132339 6.5393564,3.5477977 6.582089,3.7197331 6.2590631,3.733969 6.1398723,3.8270501 6.0036849,3.9460117 5.7412712,3.9104682 5.8137162,4.1697554 5.7641485,4.3845286 5.7184174,4.6203199 5.5969613,4.8152598 5.4683004,5.0258798 5.2180151,5.1184786 4.9797794,5.1071348 4.7257812,5.1666069 4.4325064,5.1931906 4.2394471,5.3868914 4.0932247,5.6040841 4.231604,5.8789822 4.2225496,6.1202977 c 0.032916,0.2770187 0.042146,0.5588114 0.087808,0.8328965 0.00547,0.1862731 0.43228,0.1787555 0.3108196,0.3196845 C 4.4167689,7.2750394 4.1328676,7.3455171 4.1300201,7.051062 4.0076428,6.6606954 3.9364676,6.2569358 3.8342251,5.8617208 3.7229057,5.6691352 3.7045227,6.0993652 3.6641888,6.182394 3.5874742,6.4539955 3.5026594,6.7395061 3.5389851,7.0229786 3.6337536,7.081854 3.8975114,7.1742701 3.6580006,7.2505688 3.5491614,7.2533226 3.4402047,7.2502251 3.3313174,7.2505833 3.2725244,7.0673022 3.352167,6.8417374 3.339805,6.6410258 3.3697674,6.2580155 3.4017586,5.8705268 3.5284667,5.5052212 3.589771,5.2150238 3.1753614,5.4353728 3.0222561,5.3739175 2.8056441,5.4091735 2.6265507,5.1629687 2.4453735,5.206499 2.3593607,5.4297704 2.2934685,5.6618018 2.1998636,5.8827784 2.09505,6.2133348 2.2265254,6.5641289 2.4051663,6.8431121 2.4440644,7.0431282 2.8758901,7.0608148 2.6972267,7.2819487 2.5772386,7.2805172 2.4548999,7.2977928 2.3363289,7.2823905 2.1549823,7.0957452 2.2064722,6.8094192 2.0352751,6.6074693 1.9923999,6.4079393 1.7165238,6.2561845 1.8174823,6.0442948 1.9111525,5.9181004 2.0705489,5.5780091 1.870707,5.5346048 1.6941406,5.7310301 1.5951935,5.9903907 1.5234036,6.241643 1.5061811,6.4901674 1.4832542,6.7632113 1.6048495,6.9899135 1.716839,7.0269248 2.0308732,7.1308712 1.9453042,7.2671798 1.7827154,7.2605667 1.6141097,7.2778201 1.4552334,7.2564813 1.2802497,7.0514265 1.3270267,6.7785786 1.3152946,6.530981 1.1500932,6.2934194 1.2416643,6.0019808 1.3751904,5.7691406 1.4507817,5.546372 1.4431681,5.2986593 1.408213,5.0682735 1.217575,4.85436 1.3776683,5.4296388 1.2238006,5.3801821 1.1962868,5.0373681 1.1789617,4.6333571 1.4339422,4.3668412 1.7450459,4.1450024 2.0619534,3.9308107 2.3753279,3.7121175 Z"
     id="path3339"
     inkscape:connector-curvature="0" /><path
     transform="matrix(0.02517961,0,0,0.02517961,-1.6817773,8.9096735)"
     style="opacity:0.40830449;fill:url(#radialGradient55186);fill-opacity:1;stroke:none;filter:url(#filter14661-2-8)"
     inkscape:connector-curvature="0"
     id="svg_1-4-1-5"
     d="M 139.13533,-43.460653 C 99.677627,-90.567999 82.520879,-139.09325 97.989994,-193.96078 c 31.452796,-111.56017 200.917496,-102.58306 237.803996,-1.8341 19.46829,53.17418 3.49381,104.834109 -19.32947,140.596387 -129.35313,-29.210938 -150.86263,-3.315658 -177.32919,11.73784 z"
     stroke-linecap="null"
     stroke-linejoin="null"
     sodipodi:nodetypes="csscc" /></svg>