<?xml version="1.0" encoding="UTF-8" standalone="no"?>
<!-- Generator: Adobe Illustrator 13.0.0, SVG Export Plug-In  -->

<svg
   xmlns:osb="http://www.openswatchbook.org/uri/2009/osb"
   xmlns:dc="http://purl.org/dc/elements/1.1/"
   xmlns:cc="http://creativecommons.org/ns#"
   xmlns:rdf="http://www.w3.org/1999/02/22-rdf-syntax-ns#"
   xmlns:svg="http://www.w3.org/2000/svg"
   xmlns="http://www.w3.org/2000/svg"
   xmlns:xlink="http://www.w3.org/1999/xlink"
   xmlns:sodipodi="http://sodipodi.sourceforge.net/DTD/sodipodi-0.dtd"
   xmlns:inkscape="http://www.inkscape.org/namespaces/inkscape"
   version="1.1"
   x="0px"
   y="0px"
   width="9.4292841"
   height="18.604385"
   viewBox="-0.781 -0.08 9.4292835 18.604385"
   enable-background="new -0.781 -0.08 576 506"
   xml:space="preserve"
   id="svg2"
   inkscape:version="0.91 r13725"
   sodipodi:docname="koala.svg"
   inkscape:export-filename="/home/cyrille/Desktop/biche/biche_twitter.png"
   inkscape:export-xdpi="860.625"
   inkscape:export-ydpi="860.625"><metadata
     id="metadata18"><rdf:RDF><cc:Work
         rdf:about=""><dc:format>image/svg+xml</dc:format><dc:type
           rdf:resource="http://purl.org/dc/dcmitype/StillImage" /><dc:title /></cc:Work></rdf:RDF></metadata><sodipodi:namedview
     pagecolor="#ffffff"
     bordercolor="#666666"
     borderopacity="1"
     objecttolerance="10"
     gridtolerance="10"
     guidetolerance="10"
     inkscape:pageopacity="0"
     inkscape:pageshadow="2"
     inkscape:window-width="1600"
     inkscape:window-height="843"
     id="namedview16"
     showgrid="false"
     fit-margin-top="0.3"
     fit-margin-left="0.3"
     fit-margin-right="0.3"
     fit-margin-bottom="0.3"
     inkscape:zoom="58.441612"
     inkscape:cx="2.9328982"
     inkscape:cy="13.119467"
     inkscape:window-x="1440"
     inkscape:window-y="451"
     inkscape:window-maximized="1"
     inkscape:current-layer="svg2"
     showguides="true"
     inkscape:guide-bbox="true" /><defs
     id="defs4"><linearGradient
       id="linearGradient55169"><stop
         style="stop-color:#ffffff;stop-opacity:0"
         offset="0"
         id="stop55171" /><stop
         id="stop55173"
         offset="0.35170388"
         style="stop-color:#ffffff;stop-opacity:0" /><stop
         id="stop55175"
         offset="0.84391612"
         style="stop-color:#ffffff;stop-opacity:0.62283737" /><stop
         style="stop-color:#ffffff;stop-opacity:0.89090902"
         offset="1"
         id="stop55177" /></linearGradient><filter
       inkscape:menu-tooltip="Glow of object's own color at the edges"
       inkscape:menu="Shadows and Glows"
       inkscape:label="Glow"
       id="filter14661-2-8"
       style="color-interpolation-filters:sRGB"><feGaussianBlur
         result="result91"
         stdDeviation="5"
         id="feGaussianBlur14663-2-5" /><feComposite
         operator="over"
         in="SourceGraphic"
         in2="result91"
         id="feComposite14665-4-0" /></filter><filter
       inkscape:menu-tooltip="Glow of object's own color at the edges"
       inkscape:menu="Shadows and Glows"
       inkscape:label="Glow"
       id="filter14661-2"
       style="color-interpolation-filters:sRGB"><feGaussianBlur
         result="result91"
         stdDeviation="5"
         id="feGaussianBlur14663-2" /><feComposite
         operator="over"
         in="SourceGraphic"
         in2="result91"
         id="feComposite14665-4" /></filter><linearGradient
       osb:paint="solid"
       id="linearGradient14917"><stop
         id="stop14919"
         offset="0"
         style="stop-color:#8f9dab;stop-opacity:1;" /></linearGradient><radialGradient
       inkscape:collect="always"
       xlink:href="#linearGradient55169"
       id="radialGradient55186"
       gradientUnits="userSpaceOnUse"
       gradientTransform="matrix(-1.4347771,1.1729741,-0.60089747,-0.73501541,415.78881,-620.40755)"
       cx="240.46808"
       cy="-274.17172"
       fx="240.46808"
       fy="-274.17172"
       r="145.26971" /></defs><text
     xml:space="preserve"
     style="font-style:normal;font-weight:normal;font-size:1.53795719px;line-height:125%;font-family:Sans;letter-spacing:0px;word-spacing:0px;fill:#000000;fill-opacity:1;stroke:none"
     x="0.73343688"
     y="20.763985"
     id="text14023"
     sodipodi:linespacing="125%"><tspan
       sodipodi:role="line"
       id="tspan14025"
       x="0.73343688"
       y="20.763985"
       style="font-style:normal;font-variant:normal;font-weight:normal;font-stretch:normal;font-family:Ubuntu;-inkscape-font-specification:Ubuntu" /></text>
<flowRoot
     xml:space="preserve"
     id="flowRoot14027"
     style="font-style:normal;font-weight:normal;font-size:40px;line-height:125%;font-family:Sans;letter-spacing:0px;word-spacing:0px;fill:#000000;fill-opacity:1;stroke:none"
     transform="matrix(0.03844893,0,0,0.03844893,-0.4969289,-12.316018)"><flowRegion
       id="flowRegion14029"><rect
         id="rect14031"
         width="104"
         height="204"
         x="198"
         y="1364.189" /></flowRegion><flowPara
       id="flowPara14033" /></flowRoot><text
     xml:space="preserve"
     style="font-style:normal;font-weight:normal;font-size:2.12992406px;line-height:125%;font-family:Sans;letter-spacing:0px;word-spacing:0px;fill:#000000;fill-opacity:1;stroke:none"
     x="30.265745"
     y="-6.3407917"
     id="text11663"
     sodipodi:linespacing="125%"><tspan
       sodipodi:role="line"
       x="30.265745"
       y="-6.3407917"
       style="font-style:normal;font-variant:normal;font-weight:normal;font-stretch:normal;font-size:1.84554863px;font-family:'Liberation Sans';-inkscape-font-specification:'Liberation Sans';text-align:center;text-anchor:middle"
       id="tspan13579" /></text>
<g
     transform="matrix(0.03844893,0,0,0.03844893,-0.4969289,-29.073061)"
     inkscape:label="panneau cartopartie"
     id="layer2"><text
       sodipodi:linespacing="125%"
       id="text15732"
       y="761.2832"
       x="1838.4775"
       style="font-style:normal;font-weight:normal;font-size:40px;line-height:125%;font-family:Sans;letter-spacing:0px;word-spacing:0px;fill:#000000;fill-opacity:1;stroke:none"
       xml:space="preserve"><tspan
         y="761.2832"
         x="1838.4775"
         id="tspan15734"
         sodipodi:role="line" /></text>
</g><g
     transform="matrix(0.03844893,0,0,0.03844893,-0.4969289,-29.073061)"
     inkscape:label="Layer 2"
     id="layer3" /><path
     style="fill:#ffffff;fill-opacity:1;stroke:#f91a0e;stroke-width:17.42607307;stroke-miterlimit:4;stroke-dasharray:none;stroke-opacity:1;filter:url(#filter14661-2)"
     inkscape:connector-curvature="0"
     id="svg_1-4-1"
     d="M 230.78146,243.64766 C 211.1564,-71.696166 57.070697,-48.823778 97.989938,-193.96076 129.44271,-305.52099 298.90754,-296.54389 335.79403,-195.7949 386.14151,-58.279589 217.62541,-71.78517 230.78146,243.64766 Z"
     stroke-linecap="null"
     stroke-linejoin="null"
     sodipodi:nodetypes="cssc"
     transform="matrix(0.02895542,0,0,0.02895542,-2.383288,9.6691004)" /><path
     style="opacity:0.5;fill:#ff0000;stroke:#000000;stroke-width:0.43693575;stroke-dasharray:none"
     inkscape:connector-curvature="0"
     id="svg_2-6-9"
     d="M 4.2116994,16.46186"
     stroke-linecap="null"
     stroke-linejoin="null" /><path
     d="m 5.9312518,4.4741072 c 0,0.052259 -0.067352,0.098977 -0.145696,0.098977 -0.078431,0 -0.144356,-0.048058 -0.144356,-0.1058553 0,-0.057709 0.065922,-0.1045153 0.144356,-0.1044257 0.078341,-8.58e-5 0.145696,0.039838 0.145696,0.089329 -0.031625,-0.010991 -0.061819,-0.026174 -0.092098,-0.032965 -0.013761,-0.00279 -0.032965,-0.00965 -0.049489,-0.00965 -0.027514,0 -0.059139,0.00685 -0.08522,0.010991 -0.00279,0 0.00822,0.00822 0.012331,0.012331 0.024744,-0.00135 0.048149,-0.00685 0.071462,-0.00685 0.019294,0 0.041268,0.00831 0.057799,0.011073 0.019204,0.00414 0.045378,0.013753 0.061812,0.023314 l 0.023404,0.013753 z m -0.145696,0.1196117 c 0.094779,0 0.1732091,-0.057709 0.1732091,-0.12649 0,-0.068783 -0.078341,-0.1250605 -0.1732091,-0.1250605 -0.094868,0 -0.173209,0.056369 -0.173209,0.1250605 0,0.068783 0.078341,0.12649 0.173209,0.12649 z m 0.072802,-1.0654287 c 0.00831,0.035735 0.1333683,0.181428 0.162222,0.2048323 0.044038,0.038498 0.1389066,0.1677596 0.1746386,0.2034916 0.046718,0.043948 0.08245,0.1168422 0.1085345,0.1690995 0.023404,0.046718 0.046809,0.1566838 0.057799,0.228147 -0.046718,0.023404 -0.1017458,0.035735 -0.1347082,0.068783 -0.031625,0.030194 -0.063242,0.089329 -0.066012,0.12783 -0.00279,0.056369 -0.00414,0.1333683 0.00414,0.1856263 0.00685,0.052169 0.039928,0.1044257 0.075662,0.1456953 0.00956,0.010991 0.045288,0.013753 0.063242,0.013753 0.00542,0 0.023314,0.017864 0.028854,0.015093 l 0.017864,-0.01099 C 6.3355009,4.8714305 6.3093263,4.8549067 6.3024458,4.8480262 6.2763616,4.821942 6.2378638,4.7820139 6.2227643,4.7462804 6.2062405,4.7036724 6.1952498,4.648733 6.1952498,4.5991556 c 0,-0.037075 0.00822,-0.083791 0.021974,-0.1140735 0.016524,-0.038498 0.052259,-0.074233 0.096207,-0.08656 0.016524,-0.00557 0.044038,-0.017864 0.067352,-0.027515 0.045378,0.035735 0.081111,0.068692 0.093528,0.08522 0.016433,0.021974 0.070123,0.093439 0.072893,0.1374778 0.00414,0.064582 0.00822,0.1498047 -0.024744,0.2034916 -0.028945,0.046718 -0.1127327,0.078342 -0.1595413,0.109964 l -0.094867,0.12649 c -0.063159,-0.015184 -0.1250613,-0.048148 -0.1841968,-0.052259 -0.054939,-0.00279 -0.1704403,-0.00414 -0.2130498,0.024744 -0.043948,0.030194 -0.093528,0.061819 -0.1402473,0.093438 0.016524,0.00279 0.017864,0.00422 0.035735,0.00685 0.048148,-0.030194 0.096208,-0.064582 0.1361378,-0.08522 0.028854,-0.013753 0.071462,-0.015094 0.109964,-0.015094 0.042608,0 0.08388,0.00557 0.1237206,0.017864 0.016524,0.00414 0.072893,0.026084 0.08254,0.048148 L 6.0330285,5.175209 C 6.0192755,5.206834 6.0206145,5.256319 5.9945305,5.268647 5.9573725,5.285171 5.8886753,5.228809 5.8625022,5.259087 l -0.046718,0.054939 c -0.041268,0 -0.085221,0 -0.1223813,0 -0.031535,0 -0.074142,0.00685 -0.1030858,0.019294 l -0.065922,0.028854 -0.1320284,-0.066012 0,0.075572 C 5.3291248,5.3112617 5.272755,5.2397947 5.2040613,5.193075 5.1408193,5.1518069 5.052827,5.1326032 4.988242,5.0995474 L 4.912581,5.0610494 c 0.00557,0.00831 0.010983,0.022064 0.012414,0.026175 0.023314,0.034395 0.097548,0.049488 0.12917,0.064582 0.038498,0.019294 0.097636,0.031625 0.1292588,0.061902 0.00822,0.00685 -0.035735,0.059049 -0.035735,0.081111 l 0.00964,0.038498 -0.041268,0.076912 -0.057709,0.00279 -0.037158,0.090758 C 4.9620569,5.5285166 4.9043532,5.4913588 4.903014,5.4707172 L 4.8892605,5.3209117 4.8658562,5.2961675 c 0.012331,0.078341 0,0.1690995 0.037075,0.2351141 0.034395,0.064582 0.1389066,0.08656 0.1787473,0.1512343 0.023404,0.035735 -0.00414,0.098976 0.010991,0.1415865 0.010983,0.027424 0.066012,0.038498 0.074233,0.065922 0.012414,0.045378 -0.028854,0.1127336 0,0.1512343 0.037158,0.049489 0.1223813,0.055029 0.1787481,0.085309 0.037158,0.020544 0.074233,0.056369 0.1127335,0.08522 -0.028854,0.012331 -0.057709,0.024744 -0.08522,0.037068 0.097547,0.087989 0.2061715,0.1704403 0.2928208,0.2639678 0.041178,0.042608 0.063242,0.1319395 0.1030858,0.1608821 0.037165,0.028854 0.1237213,0.045288 0.1841968,0.052168 0.070123,0.00831 0.1512343,0.013761 0.2200176,0.013761 0.039838,0 0.1250612,0.024744 0.1442665,0.064672 0.033055,0.065922 0.037158,0.092099 0.037158,0.12783 0,0.016524 -0.00135,0.032965 -0.010991,0.061819 -0.00965,-0.045288 -0.023404,-0.082451 -0.048149,-0.1126447 -0.012331,0.00822 -0.024744,0.026084 -0.037067,0.027424 -0.016524,0.00143 -0.044038,-0.015093 -0.056369,-0.00822 -0.015093,0.00685 -0.013753,0.046718 -0.028854,0.056369 -0.020634,0.010991 -0.057799,0.019204 -0.075662,0.00956 C 6.049468,6.9417907 6.0220438,6.8674684 5.9752359,6.8428129 5.932628,6.8221789 5.8721502,6.8303994 5.8254304,6.8248589 5.7787122,6.8180837 5.7195759,6.7987746 5.6962605,6.7863611 c -0.022064,0.015184 -0.00143,0.00279 -0.023404,0.019294 0.056369,0.032965 0.090669,0.050919 0.1429272,0.066012 0.042608,0.013753 0.1127328,0.019204 0.1415865,0.056369 0.019294,0.026084 0.00965,0.1017457 -0.00956,0.1127327 -0.017864,0.00822 -0.059139,-0.017864 -0.1031753,-0.052259 0.024834,0.052259 0.053689,0.094867 0.055029,0.12783 0.00136,0.038498 -0.00414,0.064582 -0.019294,0.1030857 -0.019204,0.031625 -0.057709,0.068783 -0.089329,0.087989 0.020634,-0.054939 0.024744,-0.074233 0.024744,-0.1058553 -0.00956,-0.043948 -0.00822,-0.071463 -0.035735,-0.1127328 0,0.044038 -0.00279,0.097636 -0.028854,0.1237206 -0.00557,0.00685 -0.052259,0.015184 -0.056369,-0.028855 -0.00279,-0.043948 -0.010991,-0.1512343 -0.010991,-0.2268071 0,-0.021974 -0.015184,-0.066012 -0.037158,-0.08522 -0.021974,-0.019294 -0.057709,-0.019294 -0.08522,-0.028945 -0.043948,0.022064 -0.089329,0.052259 -0.1319395,0.066012 -0.030285,0.00831 -0.068783,0.012414 -0.1030857,0.019294 -0.039928,0.00414 -0.087989,0.032965 -0.1223806,0.019204 -0.079771,-0.031625 -0.1320283,-0.1237205 -0.207601,-0.1608813 -0.027515,-0.013671 -0.075573,0.011074 -0.1030858,0 -0.056369,-0.023314 -0.1071952,-0.075573 -0.1594525,-0.112644 -0.016524,0.00822 -0.033055,0.017864 -0.048149,0.027424 -0.028854,-0.034305 -0.056369,-0.068692 -0.08388,-0.1030858 -0.013753,0.015184 -0.026084,0.030285 -0.038498,0.046718 -0.041177,-0.048056 -0.082451,-0.094865 -0.122381,-0.1415848 -0.016433,0.00965 -0.031534,0.019294 -0.046718,0.028945 -0.00965,-0.038588 -0.019204,-0.075662 -0.028854,-0.1128223 -0.031625,-0.013671 -0.063242,-0.026084 -0.093438,-0.038415 -0.00422,-0.031625 -0.00685,-0.063242 -0.00965,-0.094868 -0.031625,0.015093 -0.063242,0.031625 -0.093528,0.048058 C 4.1468417,6.2585015 4.1207575,6.1814999 4.1028938,6.1072672 4.08771,6.0481279 4.0698387,5.9780084 4.0561755,5.9189617 4.043762,5.8680428 4.0121372,5.8103376 4.008027,5.7580796 c -0.00557,-0.08245 -0.00964,-0.1746386 0,-0.2543201 C 4.019018,5.4033537 4.0836,5.3058062 4.0836,5.2027205 l 0,-0.2544097 -0.065922,0.019294 C 4.023098,5.0308468 4.042422,5.0982036 4.036882,5.1559103 4.028662,5.2480983 3.97364,5.3374271 3.961309,5.4280963 3.947556,5.5243933 3.983283,5.6398062 3.943445,5.729225 3.920041,5.778713 3.8375009,5.795147 3.7825637,5.804797 3.6890357,5.821321 3.5872903,5.824091 3.4910828,5.824091 c -0.08522,0 -0.173209,-0.024744 -0.25432,-0.019294 -0.039838,0.00279 -0.072802,0.057799 -0.1127336,0.057799 -0.079681,0 -0.1594525,-0.034395 -0.2350252,-0.048149 C 2.7651939,5.7897036 2.6304856,5.7662993 2.5123034,5.7292281 2.4587046,5.7113643 2.4064481,5.6591056 2.3610691,5.6261423 2.2950568,5.5779938 2.2112643,5.5257365 2.154808,5.4652603 2.0820055,5.3869188 2.0118815,5.285173 1.9568547,5.1930742 1.9197872,5.1298322 1.8991457,5.0541676 1.8619871,4.9758261 c -0.00414,0.048149 0.011074,0.1113936 0.020634,0.1498943 0.022064,0.093438 0.08522,0.1800873 0.143016,0.2528905 0.079771,0.1017458 0.1979541,0.1966134 0.2887121,0.2928209 0.010991,0.010991 -0.013753,0.079771 -0.00965,0.1058553 -0.034387,-0.00414 -0.068783,-0.016433 -0.1030857,-0.019204 0.015093,0.021974 0.030194,0.043948 0.046718,0.066012 -0.038498,-0.016524 -0.075572,-0.031625 -0.1127328,-0.046809 0.015093,0.027515 0.030194,0.056369 0.046718,0.085309 -0.031625,-0.00685 -0.063242,-0.013844 -0.093439,-0.019294 0.00822,0.049489 0.027515,0.1004059 0.027515,0.1512336 -9.26e-5,0.039845 -0.019294,0.083881 -0.027515,0.1223813 -0.0083,0.034305 -0.015093,0.08522 -0.038498,0.1127335 -0.024744,0.031625 -0.075662,0.050829 -0.1127335,0.065922 -0.042608,0.019294 -0.094868,0.048148 -0.1415866,0.056459 -0.070122,0.010991 -0.1484648,0.028855 -0.2158193,0.019204 C 1.5265515,6.3643854 1.4688478,6.3217472 1.4303463,6.286016 1.3753172,6.2323269 1.3244918,6.1567564 1.2901893,6.0879731 1.269465,6.0440252 1.2420408,5.9848874 1.2516012,5.9381684 1.2750055,5.8268636 1.3574565,5.7264578 1.4028355,5.6261416 c 0.030285,-0.070123 0.079771,-0.1430161 0.092098,-0.2172489 0.00685,-0.042608 -0.027424,-0.097636 -0.017864,-0.1402465 0.0083,-0.042608 0.078431,-0.067352 0.08388,-0.1127336 0.00414,-0.031625 -0.046809,-0.060472 -0.046718,-0.094867 0,-0.060472 0.037067,-0.1209517 0.046718,-0.1786577 0.00965,-0.052259 0.024744,-0.1155031 0.028855,-0.1705299 0.00685,-0.074233 0.00557,-0.1635612 0.027514,-0.2350245 0.019294,-0.060479 0.077002,-0.116843 0.1141624,-0.1705298 0.030194,-0.045288 0.075573,-0.093438 0.1030857,-0.1415866 0.045378,-0.075572 0.078342,-0.173209 0.1319395,-0.2446722 0.021974,-0.027515 0.068783,-0.045378 0.1030858,-0.056369 0.034395,-0.012331 0.087989,-0.010991 0.1223813,-0.028854 0.060479,-0.031625 0.1113928,-0.097637 0.1690995,-0.1320283 0.063242,-0.035735 0.1443561,-0.057709 0.2076011,-0.094779 0.019204,-0.012414 0.024744,-0.059139 0.046718,-0.066012 0.050829,-0.015093 0.1168423,-0.00414 0.1691003,-0.00965 0.077002,-0.00822 0.1581126,-0.053599 0.2364541,-0.046718 0.064582,0.00685 0.1155023,0.08656 0.1787473,0.1030858 0.090669,0.023404 0.1992933,0.00965 0.291392,0.028854 0.1389066,0.027515 0.2749549,0.090759 0.4138615,0.1223813 0.074233,0.016524 0.1621324,0.019204 0.2350252,0.038498 l 0.1705291,0.046718 -0.08522,0.066012 0.065922,0 L 4.188118,4.0135629 4.281556,3.9860484 4.1592643,4.1551479 4.2623501,4.1372842 4.1784703,4.3255904 4.3187168,4.2692214 4.2156311,4.4286739 4.3572176,4.3819557 4.2912053,4.608762 4.4231441,4.4768232 l 0,0.2076011 0.08388,-0.066012 0.028855,0.1594525 0.1320283,-0.1594525 0.017864,0.1594525 0.1800873,-0.2350252 -0.048149,0.320245 0.08522,-0.1512343 0.037158,0.2172488 C 4.9964565,4.8355713 5.065148,4.7324855 5.0721158,4.6266302 L 5.0913195,4.3447972 5.0349505,4.636278 4.9675982,4.7682168 4.9387437,4.647265 4.9276702,4.5427505 4.9263151,4.4410935 4.8534223,4.4452338 4.7339001,4.6074551 4.7132661,4.454792 4.5689108,4.6376488 4.6128588,4.4589904 4.4905678,4.5332231 4.592224,4.3421481 4.4314315,4.4204896 4.545505,4.2692553 4.3847125,4.3159735 4.5262991,4.174387 4.3942707,4.2211052 c 0.08388,-0.078342 0.1581126,-0.1786577 0.2543201,-0.2350245 0.056369,-0.034395 0.1374778,-0.048148 0.2076011,-0.048148 0.068783,0 0.1389065,0.046718 0.2062603,0.057709 0.032965,0.00557 0.081111,0.024744 0.1127335,0.0083 0.020544,-0.012414 0.020544,-0.060472 0.00956,-0.08388 -0.016433,-0.030195 -0.061819,-0.053599 -0.093438,-0.066012 -0.057709,-0.020634 -0.12783,-0.043948 -0.1883951,-0.048058 -0.068692,-0.00557 -0.1498047,-0.013753 -0.2158193,0.010991 l 0.068783,0.020544 C 4.6582401,3.8664735 4.5633725,3.9035409 4.4987876,3.9667874 L 4.387394,4.0767515 4.2746605,4.0823221 4.3929323,3.9351965 4.3241497,3.9338415 4.4039208,3.8609487 4.3434415,3.848618 C 4.3585345,3.823874 4.3847095,3.786716 4.3984705,3.768847 4.4190145,3.738562 4.4506385,3.701495 4.4794915,3.693186 L 4.5564935,3.668532 C 4.6101825,3.652008 4.6390345,3.641017 4.6885226,3.634137 l -0.059139,-0.035736 c 0.060479,-0.00279 0.1581126,0.038498 0.2130498,0.043948 0.071553,0.00831 0.1498943,0.021974 0.2200176,0.026175 0.054939,0.00414 0.180088,0.060479 0.2253775,0.1030858 0.039928,0.037075 0.028945,0.1044257 0.028945,0.1663308 0,0.059139 -0.037158,0.1925038 -0.077001,0.2034916 -0.053599,0.016433 -0.1058553,0.045288 -0.1608813,0.070122 -0.016434,0.00822 -0.052169,0.023314 -0.075573,0.057709 0.037075,0.00822 0.074233,0.00136 0.087989,-0.00414 C 5.1586589,4.2417196 5.2163674,4.2197456 5.281042,4.1963406 5.335981,4.1771366 5.363493,4.0878061 5.37448,4.0217916 5.3882333,3.9392518 5.4019943,3.8417044 5.3676294,3.7702411 5.3484256,3.7289731 5.2755313,3.6794823 5.2384594,3.6616163 5.1971913,3.6437526 5.1284058,3.6231186 5.0734686,3.6121278 5.0102265,3.5997143 5.0102265,3.5997143 4.8465727,3.580503 4.912585,3.5076102 5.0459555,3.465 5.1188476,3.390768 5.1573456,3.3495 5.1834296,3.2656179 5.2027286,3.2134495 c 0.00822,-0.024744 0.00542,-0.1100536 0.028854,-0.1320284 l 0.064582,0.037158 0.049488,-0.048148 c 0.030285,0.035735 0.048149,0.043948 0.081111,0.071553 l 0.00964,-0.055029 0.092099,0.098977 0.00542,-0.075662 0.1017457,0.1086248 0.017864,-0.038498 0.08522,0.1512343 -0.00136,-0.094868 0.070123,0.1457856 c 0.00685,0.039838 0.042608,0.111304 0.050828,0.1456953 z M 5.7374065,6.5746814 c 0.035735,-0.020544 0.1058553,-0.016433 0.1443561,-0.031534 0.038498,-0.015184 0.074233,-0.052259 0.1140735,-0.063242 0.030285,-0.00831 0.072893,-0.012414 0.1058553,-0.00557 0.037158,0.00822 0.07977,0.037158 0.1058545,0.064582 0.024744,0.026175 0.038498,0.066012 0.045378,0.1113936 C 6.2268399,6.626907 6.1965549,6.588409 6.1663629,6.580188 6.1484989,6.574768 6.1292049,6.596712 6.1141039,6.599482 6.0824789,6.607702 6.0425509,6.63798 6.0095886,6.64209 5.9615306,6.64751 5.9120406,6.64894 5.8611238,6.64894 c -0.020634,0 -0.063242,0.00822 -0.072893,0.00271 C 5.7731378,6.64343 5.7456228,6.604932 5.7374028,6.574648 Z M 5.568307,6.87581 c 0.021974,0 0.053599,0.010991 0.067352,0.028855 C 5.652183,6.925299 5.667284,6.965137 5.657723,6.992654 5.649423,7.015968 5.604034,7.016058 5.5834,7.029812 5.566967,7.040795 5.535342,7.061437 5.538112,7.080641 5.546332,7.126019 5.554546,7.1906057 5.533892,7.2194587 5.517459,7.2126087 5.520221,7.1576397 5.510578,7.1411177 5.503728,7.1260247 5.483063,7.1108327 5.46654,7.1108327 5.443226,7.1109186 5.425362,7.1370077 5.395078,7.1466507 5.386858,7.1177057 5.379985,7.0943917 5.382747,7.0724177 5.386887,7.0380307 5.411601,7.0009557 5.425355,6.9692431 5.432135,6.9541501 5.444559,6.9294051 5.45832,6.9211851 5.489945,6.9018911 5.531213,6.8771471 5.568284,6.8758071 Z M 3.9750329,5.7691117 c -0.041268,0.015093 -0.1031746,0.060472 -0.1443553,0.064582 -0.061902,0.00831 -0.1498943,0.016524 -0.2200176,0.016524 -0.00685,0 -0.031625,0.00685 -0.056369,0.024744 0.00685,0.041268 0.033055,0.075662 0.034395,0.086649 0.00136,0.019204 0.028855,0.065922 0.045378,0.093438 0.00965,0.017864 0.021974,0.061902 0.042608,0.056369 0.048148,-0.013753 0.063242,-0.075573 0.115503,-0.1071953 -0.020634,0.054939 -0.044038,0.081111 -0.064672,0.1155023 -0.00822,0.016441 -0.048058,0.041178 -0.063242,0.049488 -0.038498,0.019204 -0.054939,0.015093 -0.090669,0.038415 -0.017864,0.011074 -0.049489,0.024744 -0.074233,0.052259 -0.010983,0.013753 -0.039928,0.021974 -0.039928,0.108624 0,0.00557 -0.00678,0.077002 0.00964,0.096208 0.023404,-0.059049 0.021974,-0.096208 0.055029,-0.1305988 0.032965,-0.034395 0.074233,-0.052259 0.090669,-0.052259 0.020634,0 0.00557,0.063242 0.023404,0.067443 0.024744,0.00414 0.057709,-0.00143 0.079771,-0.00831 0.034305,-0.010991 0.071462,-0.039838 0.1016562,-0.056369 0.030285,-0.017864 0.061902,-0.050829 0.093528,-0.061812 0.045378,-0.015184 0.092099,0.00956 0.1415873,-0.039928 0.00964,-0.00956 0.012414,-0.026084 0.012414,-0.038498 0,-0.026084 -0.00414,-0.057709 -0.00557,-0.075573 -0.00136,-0.032965 -0.024744,-0.075572 -0.030285,-0.1045153 -0.00542,-0.032965 -0.026084,-0.08245 -0.034305,-0.1085344 -0.00831,-0.022064 -0.00685,-0.066012 -0.021974,-0.086649 z M 1.4563982,6.3354586 C 1.4165602,6.3712766 1.3505436,6.4345246 1.31901,6.4702557 1.295606,6.4991097 1.259871,6.5403787 1.246117,6.5788805 c -0.00965,0.024744 -0.010991,0.031625 -0.010991,0.063242 0,0.00542 0.017864,0.045288 0.017864,0.045288 -0.00279,0.034395 0.00414,0.086649 0.00965,0.1113936 0.00685,-0.037068 0.013671,-0.087989 0.035735,-0.1058553 0.024744,-0.021974 0.045378,-0.053599 0.063242,-0.08111 0.013671,-0.019204 0.041178,-0.050919 0.057709,-0.067352 0.013753,-0.015093 0.037068,-0.052259 0.060472,-0.059139 0.00414,-0.00136 -0.021974,0.037158 -0.023404,0.038498 -0.017864,0.027515 -0.038415,0.045378 -0.057709,0.071462 -0.024744,0.033055 -0.049489,0.057792 -0.070122,0.096296 -0.00822,0.017864 -0.00685,0.060479 -0.00685,0.08522 0,0.012331 0.035735,0.016433 0.035818,0.028855 -8.51e-5,0.056369 0.020544,0.08522 0.045288,0.1127335 -0.00414,-0.042608 0.00143,-0.086649 0.026175,-0.1140735 0.015093,-0.016524 0.027424,-0.048148 0.042608,-0.063242 0.019204,-0.017864 0.060479,-0.030285 0.072893,-0.053689 0.021974,-0.037067 0.035735,-0.089329 0.046718,-0.12917 0.00135,-0.0083 0.00414,-0.028854 0.027424,-0.042608 0.00685,0.021974 -0.017864,0.061819 -0.021974,0.08379 -0.00542,0.033055 -0.027515,0.070123 -0.027515,0.1031754 0,0.026084 0.015184,0.064582 0.037158,0.081111 l 0.068782,0.054939 C 1.665438,6.8084512 1.646143,6.7781732 1.647573,6.7506562 1.648923,6.7273422 1.676428,6.7025982 1.691521,6.6860742 1.705274,6.6709812 1.74101,6.6613302 1.74789,6.6406962 1.758881,6.6077312 1.74654,6.5636952 1.74924,6.5293922 1.75067,6.5142082 1.779525,6.4935742 1.779525,6.4784732 l -0.00135,-0.101657 c -0.052259,0.015093 -0.1457856,0.024654 -0.2034923,0.015093 -0.044038,-0.00685 -0.081111,-0.031625 -0.1182718,-0.056459"
     style="fill:#000000;fill-opacity:1;fill-rule:evenodd;stroke:none"
     id="path3589"
     inkscape:connector-curvature="0" /><path
     transform="matrix(0.02517961,0,0,0.02517961,-1.6817773,8.9096735)"
     style="opacity:0.40830449;fill:url(#radialGradient55186);fill-opacity:1;stroke:none;filter:url(#filter14661-2-8)"
     inkscape:connector-curvature="0"
     id="svg_1-4-1-5"
     d="M 139.13533,-43.460653 C 99.677627,-90.567999 82.520879,-139.09325 97.989994,-193.96078 c 31.452796,-111.56017 200.917496,-102.58306 237.803996,-1.8341 19.46829,53.17418 3.49381,104.834109 -19.32947,140.596387 -129.35313,-29.210938 -150.86263,-3.315658 -177.32919,11.73784 z"
     stroke-linecap="null"
     stroke-linejoin="null"
     sodipodi:nodetypes="csscc" /></svg>