<?xml version="1.0" encoding="UTF-8" standalone="no"?>
<!-- Generator: Adobe Illustrator 13.0.0, SVG Export Plug-In  -->

<svg
   xmlns:osb="http://www.openswatchbook.org/uri/2009/osb"
   xmlns:dc="http://purl.org/dc/elements/1.1/"
   xmlns:cc="http://creativecommons.org/ns#"
   xmlns:rdf="http://www.w3.org/1999/02/22-rdf-syntax-ns#"
   xmlns:svg="http://www.w3.org/2000/svg"
   xmlns="http://www.w3.org/2000/svg"
   xmlns:xlink="http://www.w3.org/1999/xlink"
   xmlns:sodipodi="http://sodipodi.sourceforge.net/DTD/sodipodi-0.dtd"
   xmlns:inkscape="http://www.inkscape.org/namespaces/inkscape"
   version="1.1"
   x="0px"
   y="0px"
   width="9.4292841"
   height="18.604385"
   viewBox="-0.781 -0.08 9.4292835 18.604385"
   enable-background="new -0.781 -0.08 576 506"
   xml:space="preserve"
   id="svg2"
   inkscape:version="0.91 r13725"
   sodipodi:docname="wombat.svg"
   inkscape:export-filename="/home/cyrille/Desktop/biche/biche_twitter.png"
   inkscape:export-xdpi="860.625"
   inkscape:export-ydpi="860.625"><metadata
     id="metadata18"><rdf:RDF><cc:Work
         rdf:about=""><dc:format>image/svg+xml</dc:format><dc:type
           rdf:resource="http://purl.org/dc/dcmitype/StillImage" /><dc:title /></cc:Work></rdf:RDF></metadata><sodipodi:namedview
     pagecolor="#ffffff"
     bordercolor="#666666"
     borderopacity="1"
     objecttolerance="10"
     gridtolerance="10"
     guidetolerance="10"
     inkscape:pageopacity="0"
     inkscape:pageshadow="2"
     inkscape:window-width="1600"
     inkscape:window-height="843"
     id="namedview16"
     showgrid="false"
     fit-margin-top="0.3"
     fit-margin-left="0.3"
     fit-margin-right="0.3"
     fit-margin-bottom="0.3"
     inkscape:zoom="58.441612"
     inkscape:cx="3.7940103"
     inkscape:cy="12.050222"
     inkscape:window-x="1440"
     inkscape:window-y="451"
     inkscape:window-maximized="1"
     inkscape:current-layer="svg2"
     showguides="true"
     inkscape:guide-bbox="true" /><defs
     id="defs4"><linearGradient
       id="linearGradient55169"><stop
         style="stop-color:#ffffff;stop-opacity:0"
         offset="0"
         id="stop55171" /><stop
         id="stop55173"
         offset="0.35170388"
         style="stop-color:#ffffff;stop-opacity:0" /><stop
         id="stop55175"
         offset="0.84391612"
         style="stop-color:#ffffff;stop-opacity:0.62283737" /><stop
         style="stop-color:#ffffff;stop-opacity:0.89090902"
         offset="1"
         id="stop55177" /></linearGradient><filter
       inkscape:menu-tooltip="Glow of object's own color at the edges"
       inkscape:menu="Shadows and Glows"
       inkscape:label="Glow"
       id="filter14661-2-8"
       style="color-interpolation-filters:sRGB"><feGaussianBlur
         result="result91"
         stdDeviation="5"
         id="feGaussianBlur14663-2-5" /><feComposite
         operator="over"
         in="SourceGraphic"
         in2="result91"
         id="feComposite14665-4-0" /></filter><filter
       inkscape:menu-tooltip="Glow of object's own color at the edges"
       inkscape:menu="Shadows and Glows"
       inkscape:label="Glow"
       id="filter14661-2"
       style="color-interpolation-filters:sRGB"><feGaussianBlur
         result="result91"
         stdDeviation="5"
         id="feGaussianBlur14663-2" /><feComposite
         operator="over"
         in="SourceGraphic"
         in2="result91"
         id="feComposite14665-4" /></filter><linearGradient
       osb:paint="solid"
       id="linearGradient14917"><stop
         id="stop14919"
         offset="0"
         style="stop-color:#8f9dab;stop-opacity:1;" /></linearGradient><radialGradient
       inkscape:collect="always"
       xlink:href="#linearGradient55169"
       id="radialGradient55186"
       gradientUnits="userSpaceOnUse"
       gradientTransform="matrix(-1.4347771,1.1729741,-0.60089747,-0.73501541,415.78881,-620.40755)"
       cx="240.46808"
       cy="-274.17172"
       fx="240.46808"
       fy="-274.17172"
       r="145.26971" /></defs><text
     xml:space="preserve"
     style="font-style:normal;font-weight:normal;font-size:1.53795719px;line-height:125%;font-family:Sans;letter-spacing:0px;word-spacing:0px;fill:#000000;fill-opacity:1;stroke:none"
     x="0.73343688"
     y="20.763985"
     id="text14023"
     sodipodi:linespacing="125%"><tspan
       sodipodi:role="line"
       id="tspan14025"
       x="0.73343688"
       y="20.763985"
       style="font-style:normal;font-variant:normal;font-weight:normal;font-stretch:normal;font-family:Ubuntu;-inkscape-font-specification:Ubuntu" /></text>
<flowRoot
     xml:space="preserve"
     id="flowRoot14027"
     style="font-style:normal;font-weight:normal;font-size:40px;line-height:125%;font-family:Sans;letter-spacing:0px;word-spacing:0px;fill:#000000;fill-opacity:1;stroke:none"
     transform="matrix(0.03844893,0,0,0.03844893,-0.4969289,-12.316018)"><flowRegion
       id="flowRegion14029"><rect
         id="rect14031"
         width="104"
         height="204"
         x="198"
         y="1364.189" /></flowRegion><flowPara
       id="flowPara14033" /></flowRoot><text
     xml:space="preserve"
     style="font-style:normal;font-weight:normal;font-size:2.12992406px;line-height:125%;font-family:Sans;letter-spacing:0px;word-spacing:0px;fill:#000000;fill-opacity:1;stroke:none"
     x="30.265745"
     y="-6.3407917"
     id="text11663"
     sodipodi:linespacing="125%"><tspan
       sodipodi:role="line"
       x="30.265745"
       y="-6.3407917"
       style="font-style:normal;font-variant:normal;font-weight:normal;font-stretch:normal;font-size:1.84554863px;font-family:'Liberation Sans';-inkscape-font-specification:'Liberation Sans';text-align:center;text-anchor:middle"
       id="tspan13579" /></text>
<g
     transform="matrix(0.03844893,0,0,0.03844893,-0.4969289,-29.073061)"
     inkscape:label="panneau cartopartie"
     id="layer2"><text
       sodipodi:linespacing="125%"
       id="text15732"
       y="761.2832"
       x="1838.4775"
       style="font-style:normal;font-weight:normal;font-size:40px;line-height:125%;font-family:Sans;letter-spacing:0px;word-spacing:0px;fill:#000000;fill-opacity:1;stroke:none"
       xml:space="preserve"><tspan
         y="761.2832"
         x="1838.4775"
         id="tspan15734"
         sodipodi:role="line" /></text>
</g><g
     transform="matrix(0.03844893,0,0,0.03844893,-0.4969289,-29.073061)"
     inkscape:label="Layer 2"
     id="layer3" /><path
     style="fill:#ffffff;fill-opacity:1;stroke:#f91a0e;stroke-width:17.42607307;stroke-miterlimit:4;stroke-dasharray:none;stroke-opacity:1;filter:url(#filter14661-2)"
     inkscape:connector-curvature="0"
     id="svg_1-4-1"
     d="M 230.78146,243.64766 C 211.1564,-71.696166 57.070697,-48.823778 97.989938,-193.96076 129.44271,-305.52099 298.90754,-296.54389 335.79403,-195.7949 386.14151,-58.279589 217.62541,-71.78517 230.78146,243.64766 Z"
     stroke-linecap="null"
     stroke-linejoin="null"
     sodipodi:nodetypes="cssc"
     transform="matrix(0.02895542,0,0,0.02895542,-2.383288,9.6691004)" /><path
     style="opacity:0.5;fill:#ff0000;stroke:#000000;stroke-width:0.43693575;stroke-dasharray:none"
     inkscape:connector-curvature="0"
     id="svg_2-6-9"
     d="M 4.2116994,16.46186"
     stroke-linecap="null"
     stroke-linejoin="null" /><path
     d="m 1.4849226,4.3505369 c 0.05706,-0.151146 0.16679,-0.174668 0.258963,-0.289575 0.18536,-0.230939 0.435094,-0.450962 0.725119,-0.555966 0.244333,-0.08846 0.517251,-0.182771 0.80435,-0.19425 0.230039,-0.0091 0.452763,0.02048 0.690793,0.05987 0.09319,0.01542 0.19155,0.06944 0.292726,0.113444 0.09319,0.04052 0.149008,0.105229 0.256713,0.128075 0.104328,0.02206 0.21327,0.10309 0.312196,0.135052 0.06302,0.02015 0.104215,0.06077 0.166002,0.08283 0.202128,0.07214 0.400318,0.148332 0.601771,0.182996 0.0081,0.0014 0.02262,0.0077 0.02386,-1.08e-4 0.02015,-0.12256 0.201454,-0.331216 0.236342,-0.294302 0.04445,0.04682 0.08283,0.09397 0.126612,0.141355 0.04716,0.05121 -0.01058,0.302405 0.03669,0.352824 0.118283,0.125712 0.261439,0.220924 0.364979,0.342021 0.008,0.0093 0.01598,0.01868 0.02375,0.02802 0.0772,0.09172 0.04423,0.199878 0.10399,0.290363 0.05042,0.0763 0.06089,0.172417 0.106129,0.243094 0.121547,0.189411 0.143043,0.360703 0.096,0.547638 -0.01913,0.07585 -0.08474,0.147207 -0.162851,0.199202 -0.06944,0.04626 -0.255699,0.08655 -0.419338,0.05413 -0.01024,-0.002 -0.01148,-0.04637 -0.04479,-0.06741 -0.04288,-0.02724 -0.119522,-0.03253 -0.132464,-0.03354 -0.02037,-0.0017 -0.461429,-0.205617 -0.632158,-0.138204 -0.06966,0.02757 -0.258851,-7.83e-4 -0.314335,0.01812 0.03151,-0.02296 0.05391,-0.0547 0.05391,-0.09082 0,-0.03691 0.0467,-0.06471 0.07934,-0.05548 0.0046,0 0.08868,0 0.08868,0 0.0093,-0.0046 0,-0.01384 0.01395,-0.01384 0.0093,0 0.0093,-0.0046 0.01868,-0.0092 0,0 0.01407,-0.0323 0.0093,-0.03692 -0.0046,-0.0046 -0.0233,0.0046 -0.0233,0.0046 -0.0047,0 -0.05132,0.0092 -0.05132,0.0092 -0.02802,0 -0.13539,0.0323 -0.144731,0.05076 0,0 -0.0093,0.02769 -0.0093,0.0323 -0.0046,0.0093 -0.01868,0.03241 -0.01868,0.04164 -0.0046,0.02285 -0.0092,0.04558 -0.01834,0.06843 -0.0092,0.0035 -0.01429,0.0086 -0.01373,0.01553 0.0083,0.102302 -0.0368,0.282485 -0.108267,0.44995 -0.104553,0.244895 -0.26549,0.462555 -0.398855,0.370381 -0.03579,-0.02476 0.003,-0.08474 -3.42e-4,-0.119184 -0.0029,-0.03061 -2.25e-4,-0.05762 -0.03624,-0.07585 -0.01632,-0.0082 -0.01857,-0.09206 -0.0117,-0.121772 0.0018,-0.0079 0.03185,-0.04108 0.005,-0.07957 -0.06876,-0.09814 -0.29599,-0.264477 -0.322326,-0.267178 -0.137753,-0.01384 -0.321199,-0.0035 -0.523778,0.0215 -0.08306,0.01024 -0.198527,0.0095 -0.284848,0.0323 -0.08373,0.02206 -0.06291,0.06055 -0.130776,0.127738 -0.05312,0.05267 -0.126612,0.259525 -0.08801,0.364529 0.0057,0.01564 0.01576,0.04761 0.02926,0.04637 0.141918,-0.01227 0.230715,0.111981 0.196277,0.132013 -0.03703,0.02172 -0.103091,0.02915 -0.186711,0.02656 -0.07642,-0.0024 -0.07045,0.112543 -0.167802,0.0969 -0.05976,-0.0097 -0.124586,-0.02465 -0.191437,-0.04288 -0.05841,-0.01598 -0.118734,-0.02555 -0.178945,-0.04479 -0.09037,-0.02904 0.0089,-0.442297 -0.07326,-0.475497 -0.02814,-0.01148 -0.05717,-0.05447 -0.09116,-0.04997 -0.183559,0.02442 -0.420576,-0.01733 -0.455127,-0.02836 -0.03669,-0.0117 -0.09634,0.166339 -0.06055,0.211357 0.02622,0.03286 0.228914,0.125599 0.218672,0.144056 -0.02836,0.05087 -0.168252,0.04547 -0.331216,0.04761 -0.230489,0.003 -0.318498,0.0093 -0.390639,-0.08745 -0.05548,-0.0745 0.114119,-0.23848 0.105228,-0.347872 -0.02273,-0.281022 -0.192899,-0.19155 -0.219685,-0.461542 -0.0046,-0.04693 -0.02285,-0.196952 -0.0066,-0.324351 0.01429,-0.112319 0.06212,-0.202916 0.07552,-0.247934 l 0.05458,-0.183784 0.06831,-0.475159 z m 4.891149,1.162464 c -0.01868,0.01384 -0.03275,0.0323 -0.03736,0.04614 -0.0047,0.0092 -0.02341,0.01857 -0.02341,0.0278 -0.0046,0.01384 -0.04659,0.05076 -0.06066,0.05537 l -0.03264,0.03691 c -0.01868,0.01857 -0.07,0.0278 -0.09802,0.0278 -0.0093,0 -0.01396,0 -0.01396,-0.0093 0,-0.02307 0.04659,-0.05076 0.06527,-0.05537 0.01868,-0.0046 0.03275,-0.02769 0.04671,-0.02769 0.0093,0 0.03264,-0.02769 0.03737,-0.02769 0.03736,-0.0092 0.06539,-0.06933 0.116707,-0.07394 z m 0.201566,-0.01823 c 0,0.01621 -0.0082,0.04457 -0.01227,0.05267 0,0.0041 -0.0082,0.04051 -0.0082,0.04862 0,0.0081 -0.01227,0.02431 -0.01227,0.02431 0,0.0081 -0.01632,0.03241 -0.02048,0.03646 -0.0081,0.0081 -0.01632,0.02431 -0.02453,0.02836 -0.0081,0.0041 0,0.01215 -0.01632,0.01621 -0.0041,0 -0.02048,0.01621 -0.02454,0.01621 -0.01632,0.0041 -0.03275,0.01215 -0.05312,0.01215 -0.01643,0 -0.03691,0.0041 -0.05323,0.0041 -0.0041,0 -0.03275,0 -0.02859,-0.0081 0.0041,-0.01215 0.02859,-0.02026 0.04085,-0.02026 0.01227,0 0.0655,-0.02431 0.07777,-0.03241 0.01632,-0.0081 0.02454,-0.01621 0.04085,-0.03241 0.0082,-0.0081 0.02453,-0.03646 0.03275,-0.04862 0.0041,-0.0041 0.02037,-0.03646 0.02453,-0.04052 0.0041,-0.0041 0.0368,-0.03646 0.0368,-0.05672 z m -0.324238,-0.355075 c 0.0089,0.0044 0.02678,0.01767 0.02678,0.03084 0,0.01328 -0.01789,0.02656 -0.03129,0.03095 -0.02228,0.0089 -0.09364,-0.02206 -0.102527,-0.03095 -0.01789,-0.01767 -0.03568,-0.03534 -0.04468,-0.0574 0,0 -0.0089,-0.04862 0.0045,-0.04862 0.01339,0 0.02679,0 0.03117,0.01328 0.0045,0.0088 0.03579,0.04423 0.04468,0.04862 0.0045,0 0.01778,0.0044 0.02679,0.0088 0.0044,0 0.03118,-0.0044 0.04457,0.0045 z m -0.120422,-0.137078 c 0.01778,-0.0089 0.04018,-0.01767 0.06246,-0.01767 0.02679,0 0.05346,0 0.07135,0.02206 0.01339,0.01767 0.03129,0.03984 0.03129,0.06629 0,0.01767 -0.0045,0.03984 -0.0224,0.03984 -0.02228,0 -0.01778,-0.0089 -0.03568,-0.01767 -0.01339,-0.0045 -0.04018,-0.03534 -0.05346,-0.04862 -0.009,-0.0089 -0.01789,-0.01767 -0.02679,-0.02217 l -0.01339,0 c -0.009,0 -0.02679,-0.01328 -0.01339,-0.02206 z m -0.120534,0.190086 c 0,-0.02206 0.009,-0.04862 0.01789,-0.05751 0.0089,-0.0088 0.02679,-0.01767 0.04018,-0.01767 0.01339,0 0.04018,0.05301 0.05357,0.05751 0.01328,0.0044 0.05346,0.03095 0.05796,0.04423 0.0045,0.01317 0.01789,0.03973 -0.0045,0.04862 -0.01778,0.0088 -0.07135,-1.08e-4 -0.08925,0 -0.0089,0 -0.02228,-0.02217 -0.03117,-0.03095 -0.0089,-0.0089 -0.03129,-0.0089 -0.04468,-0.04423 z m 0.330203,-0.172417 c 0.02228,0 0.01789,0 0.02679,0.0089 l 0,0.01317 c 0,0.0045 0.0044,0.0089 0.0044,0.01328 0,0.0044 0,0.01767 0.0045,0.02217 l 0.0089,0.0088 0.009,0.0089 0.0044,0.0088 0.0045,0.0089 0,0.0088 c 0,0.0045 -0.0045,0.01328 -0.0045,0.01328 l -0.0089,0.0044 c -0.0045,1.08e-4 -0.0045,0.0089 -0.0045,0.01328 0,0.0045 -0.0044,0.01328 -0.0089,0.01328 l -0.0089,0.0044 -0.0045,1.08e-4 -0.0045,0 -0.0044,-0.0045 -0.0045,0 -0.0044,0 -0.0045,-0.0044 0,-0.0044 0,-0.0045 0,-0.0044 0,-0.0089 -0.0045,-0.0088 c 0,0 -0.0044,-0.01328 -0.0044,-0.02206 0,-0.0045 0.0044,-0.0089 0.0044,-0.01328 0,-0.0045 0,-0.01328 0,-0.01767 0,-0.0045 0.0045,-0.01328 0.0045,-0.01328 l 0,-0.0045 0,-0.0088 c 0,-0.0089 0.0045,-0.01328 0,-0.03095 z m -0.116033,-0.07957 c 0,-0.01767 -0.0044,-0.03984 -0.01778,-0.04423 -0.01339,-0.0044 -0.06246,-0.0088 -0.06696,-0.01328 -0.01778,-0.01767 -0.02679,-0.03534 -0.05346,-0.03534 -0.01789,0 -0.0224,0.03534 -0.0224,0.04862 0,0.01767 -0.02228,0.03534 -0.03568,0.04862 -0.02228,0.02217 -0.04018,0.0619 -0.04018,0.09285 0,0.0044 0,0.0089 0.0089,-0.0044 0,-0.0044 0.01339,-0.0089 0.01339,-0.01328 0.0045,-0.0089 0.03129,-0.0619 0.04468,-0.06629 0.0045,0 0.04457,-0.0044 0.04907,-0.0044 0.02228,0 0.05796,-1.08e-4 0.08036,0 0.0044,0 0.0089,-0.0045 0.01339,-0.0045 l 0.01778,-0.0088 c 0.0045,0 0.0179,-0.01767 0.0089,0.0044 z m -0.588828,-0.733785 c 0,0.0619 0.04457,0.141468 0.111531,0.09724 0.03568,-0.02206 0.107029,-0.114907 0.107029,-0.163526 0,-0.05751 0.0089,-0.132689 0.0089,-0.190086 0,-0.04423 -0.0044,-0.08846 -0.0044,-0.132689 0,-0.01328 0,-0.03534 0.01778,-0.03534 0.09375,0 0.02679,0.411122 0.0045,0.455352 -0.02679,0.0574 -0.124924,0.119296 -0.182884,0.145857 -0.03129,0.01328 -0.07146,-0.02656 -0.07146,-0.05751 0,-0.01328 -0.0044,-0.04862 -0.0044,-0.06629 0,-0.0088 0.01778,-0.03534 0.01339,-0.05301 z m -0.116033,-0.115019 c -0.151709,0.132689 -0.231952,0.278546 -0.191887,0.495192 0.02679,0.132577 0.116033,0.238705 0.116033,0.375671 0,0.02656 -0.04457,0.318274 0.01339,0.137078 0.02228,-0.07068 0.08036,-0.163526 0.06696,-0.247596 -0.009,-0.04862 -0.07146,-0.150246 -0.09375,-0.185584 -0.04907,-0.08407 -0.07135,-0.251986 -0.04907,-0.353613 0.0089,-0.03545 0.1606,-0.225537 0.138316,-0.221148 z m -1.423115,1.768287 c -0.06246,-0.123799 -0.170504,-0.641387 -0.116033,-0.751455 0.05706,-0.115357 0.12121,-0.171629 0.214171,-0.247596 0.08542,-0.06989 0.151597,-0.212145 0.227451,-0.260764 0.04468,-0.02656 -0.123798,0.223737 -0.187273,0.287324 -0.144506,0.144507 -0.224524,0.28316 -0.191887,0.4818 0.01531,0.0933 0.02825,0.21192 0.04907,0.304993 0.0059,0.02622 0.04018,0.203367 0.0045,0.185698 z m -1.167191,-1.273433 c 0.136628,0.489341 0.632158,0.21811 0.409997,1.319801 -0.0251,-0.0014 -0.03511,0.01576 -0.05098,0.01531 0.02622,-0.171179 0.14957,-0.556867 0.0069,-0.779141 -0.124361,-0.193912 -0.212933,-0.241743 -0.265603,-0.289912 -0.0682,-0.06235 -0.118396,-0.243207 -0.117271,-0.253449 6.75e-4,-0.0065 0.01047,-0.0108 0.01699,-0.01261"
     style="fill:#000000;fill-opacity:1;fill-rule:evenodd;stroke:none"
     id="path3681"
     inkscape:connector-curvature="0" /><path
     transform="matrix(0.02517961,0,0,0.02517961,-1.6817773,8.9096735)"
     style="opacity:0.40830449;fill:url(#radialGradient55186);fill-opacity:1;stroke:none;filter:url(#filter14661-2-8)"
     inkscape:connector-curvature="0"
     id="svg_1-4-1-5"
     d="M 139.13533,-43.460653 C 99.677627,-90.567999 82.520879,-139.09325 97.989994,-193.96078 c 31.452796,-111.56017 200.917496,-102.58306 237.803996,-1.8341 19.46829,53.17418 3.49381,104.834109 -19.32947,140.596387 -129.35313,-29.210938 -150.86263,-3.315658 -177.32919,11.73784 z"
     stroke-linecap="null"
     stroke-linejoin="null"
     sodipodi:nodetypes="csscc" /></svg>